<svg xmlns="http://www.w3.org/2000/svg" xmlns:xlink="http://www.w3.org/1999/xlink" width="500" zoomAndPan="magnify" viewBox="0 0 375 374.999991" height="500" preserveAspectRatio="xMidYMid meet" version="1.0"><defs><g/><clipPath id="3ad7dad6a3"><path d="M 58 181.273438 L 317 181.273438 L 317 183.523438 L 58 183.523438 Z M 58 181.273438 " clip-rule="nonzero"/></clipPath></defs><g fill="#000000" fill-opacity="1"><g transform="translate(35.756838, 171.749989)"><g><path d="M 4.9375 0 L 4.9375 -36.078125 L 9.125 -36.078125 L 9.125 0 Z M 4.9375 0 "/></g></g></g><g fill="#000000" fill-opacity="1"><g transform="translate(49.866784, 171.749989)"><g><path d="M 33.140625 0 L 28.296875 0 L 8.640625 -30.296875 L 8.4375 -30.296875 C 8.488281 -29.492188 8.546875 -28.578125 8.609375 -27.546875 C 8.671875 -26.515625 8.722656 -25.421875 8.765625 -24.265625 C 8.804688 -23.109375 8.828125 -21.925781 8.828125 -20.71875 L 8.828125 0 L 4.9375 0 L 4.9375 -36.078125 L 9.75 -36.078125 L 29.34375 -5.875 L 29.515625 -5.875 C 29.472656 -6.445312 29.425781 -7.265625 29.375 -8.328125 C 29.332031 -9.390625 29.289062 -10.53125 29.25 -11.75 C 29.207031 -12.976562 29.1875 -14.117188 29.1875 -15.171875 L 29.1875 -36.078125 L 33.140625 -36.078125 Z M 33.140625 0 "/></g></g></g><g fill="#000000" fill-opacity="1"><g transform="translate(87.904437, 171.749989)"><g><path d="M 27.5625 0 L 23.125 -11.453125 L 8.65625 -11.453125 L 4.25 0 L 0 0 L 14.109375 -36.21875 L 17.890625 -36.21875 L 31.90625 0 Z M 21.859375 -15.171875 L 17.640625 -26.546875 C 17.546875 -26.847656 17.382812 -27.332031 17.15625 -28 C 16.9375 -28.675781 16.710938 -29.375 16.484375 -30.09375 C 16.253906 -30.820312 16.066406 -31.410156 15.921875 -31.859375 C 15.753906 -31.179688 15.570312 -30.507812 15.375 -29.84375 C 15.1875 -29.175781 15.003906 -28.554688 14.828125 -27.984375 C 14.648438 -27.421875 14.492188 -26.941406 14.359375 -26.546875 L 10.0625 -15.171875 Z M 21.859375 -15.171875 "/></g></g></g><g fill="#000000" fill-opacity="1"><g transform="translate(119.849164, 171.749989)"><g/></g></g><g fill="#000000" fill-opacity="1"><g transform="translate(132.9724, 171.749989)"><g><path d="M 30.9375 0 L 25.984375 0 L 12.984375 -17.546875 L 9.125 -14.09375 L 9.125 0 L 4.9375 0 L 4.9375 -36.078125 L 9.125 -36.078125 L 9.125 -18.078125 C 10.0625 -19.148438 11.023438 -20.21875 12.015625 -21.28125 C 13.003906 -22.34375 13.984375 -23.414062 14.953125 -24.5 L 25.484375 -36.078125 L 30.390625 -36.078125 L 16.03125 -20.421875 Z M 30.9375 0 "/></g></g></g><g fill="#000000" fill-opacity="1"><g transform="translate(163.905744, 171.749989)"><g><path d="M 4.9375 0 L 4.9375 -36.078125 L 9.125 -36.078125 L 9.125 -3.75 L 25.140625 -3.75 L 25.140625 0 Z M 4.9375 0 "/></g></g></g><g fill="#000000" fill-opacity="1"><g transform="translate(190.275562, 171.749989)"><g><path d="M 4.9375 0 L 4.9375 -36.078125 L 9.125 -36.078125 L 9.125 0 Z M 4.9375 0 "/></g></g></g><g fill="#000000" fill-opacity="1"><g transform="translate(204.385508, 171.749989)"><g><path d="M 20.796875 0 L 8.6875 -31.921875 L 8.484375 -31.921875 C 8.554688 -31.253906 8.613281 -30.429688 8.65625 -29.453125 C 8.707031 -28.484375 8.75 -27.425781 8.78125 -26.28125 C 8.8125 -25.144531 8.828125 -23.984375 8.828125 -22.796875 L 8.828125 0 L 4.9375 0 L 4.9375 -36.078125 L 11.15625 -36.078125 L 22.578125 -6.0625 L 22.75 -6.0625 L 34.34375 -36.078125 L 40.515625 -36.078125 L 40.515625 0 L 36.375 0 L 36.375 -23.09375 C 36.375 -24.164062 36.390625 -25.238281 36.421875 -26.3125 C 36.453125 -27.394531 36.488281 -28.414062 36.53125 -29.375 C 36.582031 -30.332031 36.632812 -31.164062 36.6875 -31.875 L 36.484375 -31.875 L 24.234375 0 Z M 20.796875 0 "/></g></g></g><g fill="#000000" fill-opacity="1"><g transform="translate(249.823482, 171.749989)"><g><path d="M 14.359375 -36.078125 C 19.015625 -36.078125 22.414062 -35.164062 24.5625 -33.34375 C 26.707031 -31.53125 27.78125 -28.925781 27.78125 -25.53125 C 27.78125 -24.007812 27.53125 -22.5625 27.03125 -21.1875 C 26.53125 -19.8125 25.71875 -18.597656 24.59375 -17.546875 C 23.476562 -16.503906 22.007812 -15.679688 20.1875 -15.078125 C 18.375 -14.484375 16.148438 -14.1875 13.515625 -14.1875 L 9.125 -14.1875 L 9.125 0 L 4.9375 0 L 4.9375 -36.078125 Z M 13.96875 -32.5 L 9.125 -32.5 L 9.125 -17.796875 L 13.046875 -17.796875 C 15.347656 -17.796875 17.269531 -18.039062 18.8125 -18.53125 C 20.351562 -19.019531 21.507812 -19.816406 22.28125 -20.921875 C 23.050781 -22.035156 23.4375 -23.515625 23.4375 -25.359375 C 23.4375 -27.765625 22.671875 -29.554688 21.140625 -30.734375 C 19.609375 -31.910156 17.21875 -32.5 13.96875 -32.5 Z M 13.96875 -32.5 "/></g></g></g><g fill="#000000" fill-opacity="1"><g transform="translate(280.214136, 171.749989)"><g><path d="M 30.9375 0 L 25.984375 0 L 12.984375 -17.546875 L 9.125 -14.09375 L 9.125 0 L 4.9375 0 L 4.9375 -36.078125 L 9.125 -36.078125 L 9.125 -18.078125 C 10.0625 -19.148438 11.023438 -20.21875 12.015625 -21.28125 C 13.003906 -22.34375 13.984375 -23.414062 14.953125 -24.5 L 25.484375 -36.078125 L 30.390625 -36.078125 L 16.03125 -20.421875 Z M 30.9375 0 "/></g></g></g><g fill="#000000" fill-opacity="1"><g transform="translate(311.147491, 171.749989)"><g><path d="M 25.015625 0 L 4.9375 0 L 4.9375 -36.078125 L 25.015625 -36.078125 L 25.015625 -32.375 L 9.125 -32.375 L 9.125 -20.703125 L 24.109375 -20.703125 L 24.109375 -17.046875 L 9.125 -17.046875 L 9.125 -3.703125 L 25.015625 -3.703125 Z M 25.015625 0 "/></g></g></g><g fill="#000000" fill-opacity="1"><g transform="translate(38.742189, 204.450001)"><g><path d="M 9.546875 -11.359375 L 3.109375 -11.359375 L 3.109375 -7.359375 L 8.890625 -7.359375 L 8.890625 -5.84375 L 3.109375 -5.84375 L 3.109375 0 L 1.40625 0 L 1.40625 -12.890625 L 9.546875 -12.890625 Z M 9.546875 -11.359375 "/></g></g></g><g fill="#000000" fill-opacity="1"><g transform="translate(48.974786, 204.450001)"><g><path d="M 12 0 L 10.109375 0 L 8.59375 -3.921875 L 3.21875 -3.921875 L 1.78125 0 L 0 0 L 4.9375 -12.890625 L 6.765625 -12.890625 Z M 5.046875 -8.90625 L 3.703125 -5.28125 L 8.078125 -5.28125 L 6.671875 -8.9375 C 6.523438 -9.320312 6.390625 -9.707031 6.265625 -10.09375 C 6.140625 -10.488281 6.003906 -10.972656 5.859375 -11.546875 L 5.8125 -11.546875 C 5.644531 -10.742188 5.390625 -9.863281 5.046875 -8.90625 Z M 5.046875 -8.90625 "/></g></g></g><g fill="#000000" fill-opacity="1"><g transform="translate(60.972828, 204.450001)"><g><path d="M 6.78125 -11.640625 C 5.882812 -11.640625 5.125 -11.421875 4.5 -10.984375 C 3.875 -10.554688 3.398438 -9.957031 3.078125 -9.1875 C 2.753906 -8.414062 2.59375 -7.535156 2.59375 -6.546875 C 2.59375 -5.453125 2.753906 -4.503906 3.078125 -3.703125 C 3.398438 -2.910156 3.867188 -2.300781 4.484375 -1.875 C 5.109375 -1.445312 5.859375 -1.234375 6.734375 -1.234375 C 7.734375 -1.234375 8.554688 -1.507812 9.203125 -2.0625 C 9.847656 -2.625 10.296875 -3.429688 10.546875 -4.484375 L 12.203125 -4.09375 C 12.003906 -3.195312 11.65625 -2.425781 11.15625 -1.78125 C 10.65625 -1.132812 10.03125 -0.640625 9.28125 -0.296875 C 8.539062 0.046875 7.710938 0.21875 6.796875 0.21875 C 5.554688 0.21875 4.488281 -0.046875 3.59375 -0.578125 C 2.695312 -1.117188 2.007812 -1.894531 1.53125 -2.90625 C 1.0625 -3.925781 0.828125 -5.132812 0.828125 -6.53125 C 0.828125 -7.863281 1.078125 -9.023438 1.578125 -10.015625 C 2.085938 -11.015625 2.796875 -11.78125 3.703125 -12.3125 C 4.609375 -12.84375 5.640625 -13.109375 6.796875 -13.109375 C 8.140625 -13.109375 9.253906 -12.785156 10.140625 -12.140625 C 11.035156 -11.503906 11.648438 -10.570312 11.984375 -9.34375 L 10.3125 -8.953125 C 10.050781 -9.859375 9.625 -10.53125 9.03125 -10.96875 C 8.445312 -11.414062 7.695312 -11.640625 6.78125 -11.640625 Z M 6.78125 -11.640625 "/></g></g></g><g fill="#000000" fill-opacity="1"><g transform="translate(73.849205, 204.450001)"><g><path d="M 3.125 -7.59375 L 9.453125 -7.59375 L 9.453125 -12.890625 L 11.15625 -12.890625 L 11.15625 0 L 9.453125 0 L 9.453125 -6.0625 L 3.125 -6.0625 L 3.125 0 L 1.40625 0 L 1.40625 -12.890625 L 3.125 -12.890625 Z M 3.125 -7.59375 "/></g></g></g><g fill="#000000" fill-opacity="1"><g transform="translate(86.409381, 204.450001)"><g><path d="M 12 0 L 10.109375 0 L 8.59375 -3.921875 L 3.21875 -3.921875 L 1.78125 0 L 0 0 L 4.9375 -12.890625 L 6.765625 -12.890625 Z M 5.046875 -8.90625 L 3.703125 -5.28125 L 8.078125 -5.28125 L 6.671875 -8.9375 C 6.523438 -9.320312 6.390625 -9.707031 6.265625 -10.09375 C 6.140625 -10.488281 6.003906 -10.972656 5.859375 -11.546875 L 5.8125 -11.546875 C 5.644531 -10.742188 5.390625 -9.863281 5.046875 -8.90625 Z M 5.046875 -8.90625 "/></g></g></g><g fill="#000000" fill-opacity="1"><g transform="translate(98.407423, 204.450001)"><g><path d="M 9.640625 -2.828125 L 9.671875 -2.828125 L 9.671875 -12.890625 L 11.28125 -12.890625 L 11.28125 0 L 9.53125 0 L 3.0625 -10.0625 L 3.03125 -10.0625 L 3.03125 0 L 1.40625 0 L 1.40625 -12.890625 L 3.171875 -12.890625 Z M 9.640625 -2.828125 "/></g></g></g><g fill="#000000" fill-opacity="1"><g transform="translate(111.090566, 204.450001)"><g><path d="M 3.953125 -4.484375 C 4.160156 -3.609375 4.3125 -2.785156 4.40625 -2.015625 C 4.445312 -2.296875 4.515625 -2.648438 4.609375 -3.078125 C 4.703125 -3.515625 4.796875 -3.921875 4.890625 -4.296875 L 7.15625 -12.890625 L 9.203125 -12.890625 L 11.296875 -4.8125 C 11.535156 -3.894531 11.71875 -2.960938 11.84375 -2.015625 C 11.90625 -2.441406 12.097656 -3.347656 12.421875 -4.734375 L 14.328125 -12.890625 L 16.046875 -12.890625 L 12.703125 0 L 11 0 L 8.390625 -10.109375 C 8.273438 -10.546875 8.191406 -10.894531 8.140625 -11.15625 C 8.066406 -10.726562 7.96875 -10.28125 7.84375 -9.8125 L 5.234375 0 L 3.53125 0 L 0.25 -12.890625 L 2 -12.890625 Z M 3.953125 -4.484375 "/></g></g></g><g fill="#000000" fill-opacity="1"><g transform="translate(127.3661, 204.450001)"><g><path d="M 12 0 L 10.109375 0 L 8.59375 -3.921875 L 3.21875 -3.921875 L 1.78125 0 L 0 0 L 4.9375 -12.890625 L 6.765625 -12.890625 Z M 5.046875 -8.90625 L 3.703125 -5.28125 L 8.078125 -5.28125 L 6.671875 -8.9375 C 6.523438 -9.320312 6.390625 -9.707031 6.265625 -10.09375 C 6.140625 -10.488281 6.003906 -10.972656 5.859375 -11.546875 L 5.8125 -11.546875 C 5.644531 -10.742188 5.390625 -9.863281 5.046875 -8.90625 Z M 5.0625 -14 L 3.34375 -14 L 3.34375 -15.890625 L 5.0625 -15.890625 Z M 8.296875 -14 L 6.59375 -14 L 6.59375 -15.890625 L 8.296875 -15.890625 Z M 8.296875 -14 "/></g></g></g><g fill="#000000" fill-opacity="1"><g transform="translate(139.364142, 204.450001)"><g><path d="M 3.109375 -1.53125 L 9.46875 -1.53125 L 9.46875 0 L 1.40625 0 L 1.40625 -12.890625 L 3.109375 -12.890625 Z M 3.109375 -1.53125 "/></g></g></g><g fill="#000000" fill-opacity="1"><g transform="translate(149.368372, 204.450001)"><g><path d="M 10.28125 -11.359375 L 6.171875 -11.359375 L 6.171875 0 L 4.46875 0 L 4.46875 -11.359375 L 0.359375 -11.359375 L 0.359375 -12.890625 L 10.28125 -12.890625 Z M 10.28125 -11.359375 "/></g></g></g><g fill="#000000" fill-opacity="1"><g transform="translate(159.996213, 204.450001)"><g><path d="M 3.125 0 L 1.40625 0 L 1.40625 -12.890625 L 3.125 -12.890625 Z M 3.125 0 "/></g></g></g><g fill="#000000" fill-opacity="1"><g transform="translate(164.519639, 204.450001)"><g><path d="M 9.640625 -2.828125 L 9.671875 -2.828125 L 9.671875 -12.890625 L 11.28125 -12.890625 L 11.28125 0 L 9.53125 0 L 3.0625 -10.0625 L 3.03125 -10.0625 L 3.03125 0 L 1.40625 0 L 1.40625 -12.890625 L 3.171875 -12.890625 Z M 9.640625 -2.828125 "/></g></g></g><g fill="#000000" fill-opacity="1"><g transform="translate(177.202782, 204.450001)"><g/></g></g><g fill="#000000" fill-opacity="1"><g transform="translate(182.147808, 204.450001)"><g><path d="M 9.546875 -11.359375 L 3.109375 -11.359375 L 3.109375 -7.359375 L 8.890625 -7.359375 L 8.890625 -5.84375 L 3.109375 -5.84375 L 3.109375 0 L 1.40625 0 L 1.40625 -12.890625 L 9.546875 -12.890625 Z M 9.546875 -11.359375 "/></g></g></g><g fill="#000000" fill-opacity="1"><g transform="translate(192.380405, 204.450001)"><g><path d="M 3.03125 -5.171875 C 3.03125 -4.273438 3.140625 -3.546875 3.359375 -2.984375 C 3.578125 -2.421875 3.925781 -2 4.40625 -1.71875 C 4.882812 -1.445312 5.507812 -1.3125 6.28125 -1.3125 C 7.070312 -1.3125 7.703125 -1.445312 8.171875 -1.71875 C 8.648438 -2 8.992188 -2.421875 9.203125 -2.984375 C 9.421875 -3.546875 9.53125 -4.273438 9.53125 -5.171875 L 9.53125 -12.890625 L 11.25 -12.890625 L 11.25 -5.3125 C 11.25 -4 11.070312 -2.9375 10.71875 -2.125 C 10.363281 -1.320312 9.820312 -0.726562 9.09375 -0.34375 C 8.375 0.03125 7.445312 0.21875 6.3125 0.21875 C 5.144531 0.21875 4.191406 0.03125 3.453125 -0.34375 C 2.722656 -0.726562 2.179688 -1.320312 1.828125 -2.125 C 1.484375 -2.9375 1.3125 -4 1.3125 -5.3125 L 1.3125 -12.890625 L 3.03125 -12.890625 Z M 5.421875 -14 L 3.703125 -14 L 3.703125 -15.890625 L 5.421875 -15.890625 Z M 8.65625 -14 L 6.953125 -14 L 6.953125 -15.890625 L 8.65625 -15.890625 Z M 8.65625 -14 "/></g></g></g><g fill="#000000" fill-opacity="1"><g transform="translate(204.940581, 204.450001)"><g><path d="M 10.5625 -9.3125 C 10.5625 -8.425781 10.320312 -7.691406 9.84375 -7.109375 C 9.363281 -6.523438 8.65625 -6.113281 7.71875 -5.875 L 7.71875 -5.8125 C 7.925781 -5.738281 8.113281 -5.617188 8.28125 -5.453125 C 8.457031 -5.285156 8.648438 -5.03125 8.859375 -4.6875 C 9.066406 -4.351562 9.332031 -3.875 9.65625 -3.25 L 11.28125 0 L 9.375 0 L 8.03125 -2.78125 C 7.675781 -3.507812 7.351562 -4.066406 7.0625 -4.453125 C 6.769531 -4.835938 6.429688 -5.117188 6.046875 -5.296875 C 5.660156 -5.484375 5.175781 -5.578125 4.59375 -5.578125 L 3.109375 -5.578125 L 3.109375 0 L 1.40625 0 L 1.40625 -12.890625 L 6.15625 -12.890625 C 7.632812 -12.890625 8.738281 -12.582031 9.46875 -11.96875 C 10.195312 -11.351562 10.5625 -10.46875 10.5625 -9.3125 Z M 8.796875 -9.25 C 8.796875 -9.96875 8.570312 -10.5 8.125 -10.84375 C 7.6875 -11.1875 7.019531 -11.359375 6.125 -11.359375 L 3.109375 -11.359375 L 3.109375 -7.109375 L 6.078125 -7.109375 C 6.960938 -7.109375 7.632812 -7.285156 8.09375 -7.640625 C 8.5625 -7.992188 8.796875 -8.53125 8.796875 -9.25 Z M 8.796875 -9.25 "/></g></g></g><g fill="#000000" fill-opacity="1"><g transform="translate(216.578512, 204.450001)"><g/></g></g><g fill="#000000" fill-opacity="1"><g transform="translate(221.523538, 204.450001)"><g><path d="M 8.796875 -9.03125 C 8.609375 -9.96875 8.265625 -10.632812 7.765625 -11.03125 C 7.273438 -11.4375 6.601562 -11.640625 5.75 -11.640625 C 5.195312 -11.640625 4.707031 -11.554688 4.28125 -11.390625 C 3.851562 -11.234375 3.519531 -11.003906 3.28125 -10.703125 C 3.039062 -10.398438 2.921875 -10.050781 2.921875 -9.65625 C 2.921875 -9.238281 3.023438 -8.90625 3.234375 -8.65625 C 3.453125 -8.414062 3.785156 -8.210938 4.234375 -8.046875 C 4.679688 -7.890625 5.328125 -7.71875 6.171875 -7.53125 C 7.328125 -7.28125 8.242188 -6.988281 8.921875 -6.65625 C 9.597656 -6.332031 10.085938 -5.925781 10.390625 -5.4375 C 10.703125 -4.957031 10.859375 -4.359375 10.859375 -3.640625 C 10.859375 -2.910156 10.65625 -2.253906 10.25 -1.671875 C 9.851562 -1.085938 9.300781 -0.625 8.59375 -0.28125 C 7.882812 0.0507812 7.082031 0.21875 6.1875 0.21875 C 4.644531 0.21875 3.410156 -0.140625 2.484375 -0.859375 C 1.566406 -1.578125 1.007812 -2.628906 0.8125 -4.015625 L 2.484375 -4.40625 C 2.597656 -3.351562 2.960938 -2.5625 3.578125 -2.03125 C 4.191406 -1.5 5.039062 -1.234375 6.125 -1.234375 C 6.6875 -1.234375 7.203125 -1.320312 7.671875 -1.5 C 8.148438 -1.6875 8.523438 -1.941406 8.796875 -2.265625 C 9.078125 -2.597656 9.21875 -2.960938 9.21875 -3.359375 C 9.21875 -3.898438 9.082031 -4.320312 8.8125 -4.625 C 8.550781 -4.925781 8.160156 -5.171875 7.640625 -5.359375 C 7.210938 -5.503906 6.582031 -5.675781 5.75 -5.875 C 5.257812 -5.976562 4.914062 -6.0625 4.71875 -6.125 C 3.820312 -6.363281 3.125 -6.648438 2.625 -6.984375 C 2.125 -7.328125 1.773438 -7.710938 1.578125 -8.140625 C 1.378906 -8.578125 1.28125 -9.09375 1.28125 -9.6875 C 1.28125 -10.332031 1.472656 -10.914062 1.859375 -11.4375 C 2.242188 -11.957031 2.773438 -12.363281 3.453125 -12.65625 C 4.128906 -12.957031 4.882812 -13.109375 5.71875 -13.109375 C 6.601562 -13.109375 7.382812 -12.957031 8.0625 -12.65625 C 8.75 -12.363281 9.296875 -11.941406 9.703125 -11.390625 C 10.117188 -10.835938 10.378906 -10.171875 10.484375 -9.390625 L 8.828125 -9.03125 Z M 8.796875 -9.03125 "/></g></g></g><g fill="#000000" fill-opacity="1"><g transform="translate(233.301991, 204.450001)"><g><path d="M 10.28125 -11.359375 L 6.171875 -11.359375 L 6.171875 0 L 4.46875 0 L 4.46875 -11.359375 L 0.359375 -11.359375 L 0.359375 -12.890625 L 10.28125 -12.890625 Z M 10.28125 -11.359375 "/></g></g></g><g fill="#000000" fill-opacity="1"><g transform="translate(243.929843, 204.450001)"><g><path d="M 10.5625 -9.3125 C 10.5625 -8.425781 10.320312 -7.691406 9.84375 -7.109375 C 9.363281 -6.523438 8.65625 -6.113281 7.71875 -5.875 L 7.71875 -5.8125 C 7.925781 -5.738281 8.113281 -5.617188 8.28125 -5.453125 C 8.457031 -5.285156 8.648438 -5.03125 8.859375 -4.6875 C 9.066406 -4.351562 9.332031 -3.875 9.65625 -3.25 L 11.28125 0 L 9.375 0 L 8.03125 -2.78125 C 7.675781 -3.507812 7.351562 -4.066406 7.0625 -4.453125 C 6.769531 -4.835938 6.429688 -5.117188 6.046875 -5.296875 C 5.660156 -5.484375 5.175781 -5.578125 4.59375 -5.578125 L 3.109375 -5.578125 L 3.109375 0 L 1.40625 0 L 1.40625 -12.890625 L 6.15625 -12.890625 C 7.632812 -12.890625 8.738281 -12.582031 9.46875 -11.96875 C 10.195312 -11.351562 10.5625 -10.46875 10.5625 -9.3125 Z M 8.796875 -9.25 C 8.796875 -9.96875 8.570312 -10.5 8.125 -10.84375 C 7.6875 -11.1875 7.019531 -11.359375 6.125 -11.359375 L 3.109375 -11.359375 L 3.109375 -7.109375 L 6.078125 -7.109375 C 6.960938 -7.109375 7.632812 -7.285156 8.09375 -7.640625 C 8.5625 -7.992188 8.796875 -8.53125 8.796875 -9.25 Z M 8.796875 -9.25 "/></g></g></g><g fill="#000000" fill-opacity="1"><g transform="translate(255.567774, 204.450001)"><g><path d="M 12 0 L 10.109375 0 L 8.59375 -3.921875 L 3.21875 -3.921875 L 1.78125 0 L 0 0 L 4.9375 -12.890625 L 6.765625 -12.890625 Z M 5.046875 -8.90625 L 3.703125 -5.28125 L 8.078125 -5.28125 L 6.671875 -8.9375 C 6.523438 -9.320312 6.390625 -9.707031 6.265625 -10.09375 C 6.140625 -10.488281 6.003906 -10.972656 5.859375 -11.546875 L 5.8125 -11.546875 C 5.644531 -10.742188 5.390625 -9.863281 5.046875 -8.90625 Z M 5.046875 -8.90625 "/></g></g></g><g fill="#000000" fill-opacity="1"><g transform="translate(267.565828, 204.450001)"><g><path d="M 9.546875 -11.359375 L 3.109375 -11.359375 L 3.109375 -7.359375 L 8.890625 -7.359375 L 8.890625 -5.84375 L 3.109375 -5.84375 L 3.109375 0 L 1.40625 0 L 1.40625 -12.890625 L 9.546875 -12.890625 Z M 9.546875 -11.359375 "/></g></g></g><g fill="#000000" fill-opacity="1"><g transform="translate(277.798425, 204.450001)"><g><path d="M 10.5625 -9.3125 C 10.5625 -8.425781 10.320312 -7.691406 9.84375 -7.109375 C 9.363281 -6.523438 8.65625 -6.113281 7.71875 -5.875 L 7.71875 -5.8125 C 7.925781 -5.738281 8.113281 -5.617188 8.28125 -5.453125 C 8.457031 -5.285156 8.648438 -5.03125 8.859375 -4.6875 C 9.066406 -4.351562 9.332031 -3.875 9.65625 -3.25 L 11.28125 0 L 9.375 0 L 8.03125 -2.78125 C 7.675781 -3.507812 7.351562 -4.066406 7.0625 -4.453125 C 6.769531 -4.835938 6.429688 -5.117188 6.046875 -5.296875 C 5.660156 -5.484375 5.175781 -5.578125 4.59375 -5.578125 L 3.109375 -5.578125 L 3.109375 0 L 1.40625 0 L 1.40625 -12.890625 L 6.15625 -12.890625 C 7.632812 -12.890625 8.738281 -12.582031 9.46875 -11.96875 C 10.195312 -11.351562 10.5625 -10.46875 10.5625 -9.3125 Z M 8.796875 -9.25 C 8.796875 -9.96875 8.570312 -10.5 8.125 -10.84375 C 7.6875 -11.1875 7.019531 -11.359375 6.125 -11.359375 L 3.109375 -11.359375 L 3.109375 -7.109375 L 6.078125 -7.109375 C 6.960938 -7.109375 7.632812 -7.285156 8.09375 -7.640625 C 8.5625 -7.992188 8.796875 -8.53125 8.796875 -9.25 Z M 8.796875 -9.25 "/></g></g></g><g fill="#000000" fill-opacity="1"><g transform="translate(289.436356, 204.450001)"><g><path d="M 9.5 -11.359375 L 3.109375 -11.359375 L 3.109375 -7.421875 L 9.015625 -7.421875 L 9.015625 -5.890625 L 3.109375 -5.890625 L 3.109375 -1.53125 L 9.8125 -1.53125 L 9.8125 0 L 1.40625 0 L 1.40625 -12.890625 L 9.5 -12.890625 Z M 9.5 -11.359375 "/></g></g></g><g fill="#000000" fill-opacity="1"><g transform="translate(300.178375, 204.450001)"><g><path d="M 6.78125 -11.640625 C 5.882812 -11.640625 5.125 -11.421875 4.5 -10.984375 C 3.875 -10.554688 3.398438 -9.957031 3.078125 -9.1875 C 2.753906 -8.414062 2.59375 -7.535156 2.59375 -6.546875 C 2.59375 -5.453125 2.753906 -4.503906 3.078125 -3.703125 C 3.398438 -2.910156 3.867188 -2.300781 4.484375 -1.875 C 5.109375 -1.445312 5.859375 -1.234375 6.734375 -1.234375 C 7.734375 -1.234375 8.554688 -1.507812 9.203125 -2.0625 C 9.847656 -2.625 10.296875 -3.429688 10.546875 -4.484375 L 12.203125 -4.09375 C 12.003906 -3.195312 11.65625 -2.425781 11.15625 -1.78125 C 10.65625 -1.132812 10.03125 -0.640625 9.28125 -0.296875 C 8.539062 0.046875 7.710938 0.21875 6.796875 0.21875 C 5.554688 0.21875 4.488281 -0.046875 3.59375 -0.578125 C 2.695312 -1.117188 2.007812 -1.894531 1.53125 -2.90625 C 1.0625 -3.925781 0.828125 -5.132812 0.828125 -6.53125 C 0.828125 -7.863281 1.078125 -9.023438 1.578125 -10.015625 C 2.085938 -11.015625 2.796875 -11.78125 3.703125 -12.3125 C 4.609375 -12.84375 5.640625 -13.109375 6.796875 -13.109375 C 8.140625 -13.109375 9.253906 -12.785156 10.140625 -12.140625 C 11.035156 -11.503906 11.648438 -10.570312 11.984375 -9.34375 L 10.3125 -8.953125 C 10.050781 -9.859375 9.625 -10.53125 9.03125 -10.96875 C 8.445312 -11.414062 7.695312 -11.640625 6.78125 -11.640625 Z M 6.78125 -11.640625 "/></g></g></g><g fill="#000000" fill-opacity="1"><g transform="translate(313.054762, 204.450001)"><g><path d="M 3.125 -7.59375 L 9.453125 -7.59375 L 9.453125 -12.890625 L 11.15625 -12.890625 L 11.15625 0 L 9.453125 0 L 9.453125 -6.0625 L 3.125 -6.0625 L 3.125 0 L 1.40625 0 L 1.40625 -12.890625 L 3.125 -12.890625 Z M 3.125 -7.59375 "/></g></g></g><g fill="#000000" fill-opacity="1"><g transform="translate(325.614927, 204.450001)"><g><path d="M 10.28125 -11.359375 L 6.171875 -11.359375 L 6.171875 0 L 4.46875 0 L 4.46875 -11.359375 L 0.359375 -11.359375 L 0.359375 -12.890625 L 10.28125 -12.890625 Z M 10.28125 -11.359375 "/></g></g></g><g clip-path="url(#3ad7dad6a3)"><path fill="#000000" d="M 187.660156 183.523438 L 58.59375 182.398438 L 187.660156 181.273438 L 316.722656 182.398438 Z M 187.660156 183.523438 " fill-opacity="1" fill-rule="nonzero"/></g></svg>