<svg xmlns="http://www.w3.org/2000/svg" xmlns:xlink="http://www.w3.org/1999/xlink" width="500" zoomAndPan="magnify" viewBox="0 0 375 374.999991" height="500" preserveAspectRatio="xMidYMid meet" version="1.0"><defs><g/><clipPath id="f0d0b008f5"><path d="M 58 186.324219 L 317 186.324219 L 317 188.574219 L 58 188.574219 Z M 58 186.324219 " clip-rule="nonzero"/></clipPath></defs><g fill="#000000" fill-opacity="1"><g transform="translate(35.756838, 175.629195)"><g><path d="M 4.9375 0 L 4.9375 -36.078125 L 9.125 -36.078125 L 9.125 0 Z M 4.9375 0 "/></g></g></g><g fill="#000000" fill-opacity="1"><g transform="translate(49.866784, 175.629195)"><g><path d="M 33.140625 0 L 28.296875 0 L 8.640625 -30.296875 L 8.4375 -30.296875 C 8.488281 -29.492188 8.546875 -28.578125 8.609375 -27.546875 C 8.671875 -26.515625 8.722656 -25.421875 8.765625 -24.265625 C 8.804688 -23.109375 8.828125 -21.925781 8.828125 -20.71875 L 8.828125 0 L 4.9375 0 L 4.9375 -36.078125 L 9.75 -36.078125 L 29.34375 -5.875 L 29.515625 -5.875 C 29.472656 -6.445312 29.425781 -7.265625 29.375 -8.328125 C 29.332031 -9.390625 29.289062 -10.53125 29.25 -11.75 C 29.207031 -12.976562 29.1875 -14.117188 29.1875 -15.171875 L 29.1875 -36.078125 L 33.140625 -36.078125 Z M 33.140625 0 "/></g></g></g><g fill="#000000" fill-opacity="1"><g transform="translate(87.904437, 175.629195)"><g><path d="M 27.5625 0 L 23.125 -11.453125 L 8.65625 -11.453125 L 4.25 0 L 0 0 L 14.109375 -36.21875 L 17.890625 -36.21875 L 31.90625 0 Z M 21.859375 -15.171875 L 17.640625 -26.546875 C 17.546875 -26.847656 17.382812 -27.332031 17.15625 -28 C 16.9375 -28.675781 16.710938 -29.375 16.484375 -30.09375 C 16.253906 -30.820312 16.066406 -31.410156 15.921875 -31.859375 C 15.753906 -31.179688 15.570312 -30.507812 15.375 -29.84375 C 15.1875 -29.175781 15.003906 -28.554688 14.828125 -27.984375 C 14.648438 -27.421875 14.492188 -26.941406 14.359375 -26.546875 L 10.0625 -15.171875 Z M 21.859375 -15.171875 "/></g></g></g><g fill="#000000" fill-opacity="1"><g transform="translate(119.849164, 175.629195)"><g/></g></g><g fill="#000000" fill-opacity="1"><g transform="translate(132.9724, 175.629195)"><g><path d="M 30.9375 0 L 25.984375 0 L 12.984375 -17.546875 L 9.125 -14.09375 L 9.125 0 L 4.9375 0 L 4.9375 -36.078125 L 9.125 -36.078125 L 9.125 -18.078125 C 10.0625 -19.148438 11.023438 -20.21875 12.015625 -21.28125 C 13.003906 -22.34375 13.984375 -23.414062 14.953125 -24.5 L 25.484375 -36.078125 L 30.390625 -36.078125 L 16.03125 -20.421875 Z M 30.9375 0 "/></g></g></g><g fill="#000000" fill-opacity="1"><g transform="translate(163.905744, 175.629195)"><g><path d="M 4.9375 0 L 4.9375 -36.078125 L 9.125 -36.078125 L 9.125 -3.75 L 25.140625 -3.75 L 25.140625 0 Z M 4.9375 0 "/></g></g></g><g fill="#000000" fill-opacity="1"><g transform="translate(190.275562, 175.629195)"><g><path d="M 4.9375 0 L 4.9375 -36.078125 L 9.125 -36.078125 L 9.125 0 Z M 4.9375 0 "/></g></g></g><g fill="#000000" fill-opacity="1"><g transform="translate(204.385508, 175.629195)"><g><path d="M 20.796875 0 L 8.6875 -31.921875 L 8.484375 -31.921875 C 8.554688 -31.253906 8.613281 -30.429688 8.65625 -29.453125 C 8.707031 -28.484375 8.75 -27.425781 8.78125 -26.28125 C 8.8125 -25.144531 8.828125 -23.984375 8.828125 -22.796875 L 8.828125 0 L 4.9375 0 L 4.9375 -36.078125 L 11.15625 -36.078125 L 22.578125 -6.0625 L 22.75 -6.0625 L 34.34375 -36.078125 L 40.515625 -36.078125 L 40.515625 0 L 36.375 0 L 36.375 -23.09375 C 36.375 -24.164062 36.390625 -25.238281 36.421875 -26.3125 C 36.453125 -27.394531 36.488281 -28.414062 36.53125 -29.375 C 36.582031 -30.332031 36.632812 -31.164062 36.6875 -31.875 L 36.484375 -31.875 L 24.234375 0 Z M 20.796875 0 "/></g></g></g><g fill="#000000" fill-opacity="1"><g transform="translate(249.823482, 175.629195)"><g><path d="M 14.359375 -36.078125 C 19.015625 -36.078125 22.414062 -35.164062 24.5625 -33.34375 C 26.707031 -31.53125 27.78125 -28.925781 27.78125 -25.53125 C 27.78125 -24.007812 27.53125 -22.5625 27.03125 -21.1875 C 26.53125 -19.8125 25.71875 -18.597656 24.59375 -17.546875 C 23.476562 -16.503906 22.007812 -15.679688 20.1875 -15.078125 C 18.375 -14.484375 16.148438 -14.1875 13.515625 -14.1875 L 9.125 -14.1875 L 9.125 0 L 4.9375 0 L 4.9375 -36.078125 Z M 13.96875 -32.5 L 9.125 -32.5 L 9.125 -17.796875 L 13.046875 -17.796875 C 15.347656 -17.796875 17.269531 -18.039062 18.8125 -18.53125 C 20.351562 -19.019531 21.507812 -19.816406 22.28125 -20.921875 C 23.050781 -22.035156 23.4375 -23.515625 23.4375 -25.359375 C 23.4375 -27.765625 22.671875 -29.554688 21.140625 -30.734375 C 19.609375 -31.910156 17.21875 -32.5 13.96875 -32.5 Z M 13.96875 -32.5 "/></g></g></g><g fill="#000000" fill-opacity="1"><g transform="translate(280.214136, 175.629195)"><g><path d="M 30.9375 0 L 25.984375 0 L 12.984375 -17.546875 L 9.125 -14.09375 L 9.125 0 L 4.9375 0 L 4.9375 -36.078125 L 9.125 -36.078125 L 9.125 -18.078125 C 10.0625 -19.148438 11.023438 -20.21875 12.015625 -21.28125 C 13.003906 -22.34375 13.984375 -23.414062 14.953125 -24.5 L 25.484375 -36.078125 L 30.390625 -36.078125 L 16.03125 -20.421875 Z M 30.9375 0 "/></g></g></g><g fill="#000000" fill-opacity="1"><g transform="translate(311.147491, 175.629195)"><g><path d="M 25.015625 0 L 4.9375 0 L 4.9375 -36.078125 L 25.015625 -36.078125 L 25.015625 -32.375 L 9.125 -32.375 L 9.125 -20.703125 L 24.109375 -20.703125 L 24.109375 -17.046875 L 9.125 -17.046875 L 9.125 -3.703125 L 25.015625 -3.703125 Z M 25.015625 0 "/></g></g></g><g clip-path="url(#f0d0b008f5)"><path fill="#000000" d="M 187.773438 188.574219 L 58.710938 187.449219 L 187.773438 186.324219 L 316.835938 187.449219 Z M 187.773438 188.574219 " fill-opacity="1" fill-rule="nonzero"/></g><g fill="#000000" fill-opacity="1"><g transform="translate(52.546876, 220.810766)"><g><path d="M 3.859375 0 L 2.078125 0 L 2.078125 -15.25 L 10.578125 -15.25 L 10.578125 -13.6875 L 3.859375 -13.6875 L 3.859375 -8.09375 L 10.171875 -8.09375 L 10.171875 -6.546875 L 3.859375 -6.546875 Z M 3.859375 0 "/></g></g></g><g fill="#000000" fill-opacity="1"><g transform="translate(63.5667, 220.810766)"><g><path d="M 6.09375 -11.625 C 7.457031 -11.625 8.46875 -11.316406 9.125 -10.703125 C 9.789062 -10.085938 10.125 -9.109375 10.125 -7.765625 L 10.125 0 L 8.859375 0 L 8.53125 -1.6875 L 8.453125 -1.6875 C 8.128906 -1.269531 7.789062 -0.921875 7.4375 -0.640625 C 7.09375 -0.359375 6.691406 -0.144531 6.234375 0 C 5.785156 0.132812 5.226562 0.203125 4.5625 0.203125 C 3.875 0.203125 3.257812 0.0820312 2.71875 -0.15625 C 2.175781 -0.394531 1.75 -0.757812 1.4375 -1.25 C 1.132812 -1.75 0.984375 -2.378906 0.984375 -3.140625 C 0.984375 -4.273438 1.429688 -5.148438 2.328125 -5.765625 C 3.234375 -6.378906 4.613281 -6.710938 6.46875 -6.765625 L 8.4375 -6.859375 L 8.4375 -7.546875 C 8.4375 -8.535156 8.222656 -9.226562 7.796875 -9.625 C 7.378906 -10.019531 6.78125 -10.21875 6 -10.21875 C 5.40625 -10.21875 4.835938 -10.128906 4.296875 -9.953125 C 3.753906 -9.785156 3.238281 -9.582031 2.75 -9.34375 L 2.21875 -10.65625 C 2.738281 -10.925781 3.332031 -11.15625 4 -11.34375 C 4.664062 -11.53125 5.363281 -11.625 6.09375 -11.625 Z M 8.421875 -5.625 L 6.671875 -5.5625 C 5.242188 -5.5 4.238281 -5.265625 3.65625 -4.859375 C 3.070312 -4.453125 2.78125 -3.875 2.78125 -3.125 C 2.78125 -2.46875 2.976562 -1.984375 3.375 -1.671875 C 3.769531 -1.359375 4.296875 -1.203125 4.953125 -1.203125 C 5.972656 -1.203125 6.804688 -1.484375 7.453125 -2.046875 C 8.097656 -2.609375 8.421875 -3.453125 8.421875 -4.578125 Z M 8.421875 -5.625 "/></g></g></g><g fill="#000000" fill-opacity="1"><g transform="translate(75.430996, 220.810766)"><g><path d="M 6.40625 0.203125 C 5.375 0.203125 4.460938 -0.00390625 3.671875 -0.421875 C 2.890625 -0.847656 2.28125 -1.492188 1.84375 -2.359375 C 1.40625 -3.234375 1.1875 -4.332031 1.1875 -5.65625 C 1.1875 -7.039062 1.414062 -8.171875 1.875 -9.046875 C 2.34375 -9.921875 2.984375 -10.570312 3.796875 -11 C 4.609375 -11.425781 5.535156 -11.640625 6.578125 -11.640625 C 7.140625 -11.640625 7.6875 -11.582031 8.21875 -11.46875 C 8.75 -11.351562 9.1875 -11.207031 9.53125 -11.03125 L 9.015625 -9.578125 C 8.660156 -9.722656 8.253906 -9.847656 7.796875 -9.953125 C 7.347656 -10.066406 6.925781 -10.125 6.53125 -10.125 C 5.738281 -10.125 5.078125 -9.953125 4.546875 -9.609375 C 4.023438 -9.273438 3.632812 -8.773438 3.375 -8.109375 C 3.113281 -7.453125 2.984375 -6.640625 2.984375 -5.671875 C 2.984375 -4.742188 3.109375 -3.953125 3.359375 -3.296875 C 3.617188 -2.648438 4 -2.15625 4.5 -1.8125 C 5 -1.46875 5.628906 -1.296875 6.390625 -1.296875 C 6.992188 -1.296875 7.539062 -1.359375 8.03125 -1.484375 C 8.519531 -1.609375 8.960938 -1.757812 9.359375 -1.9375 L 9.359375 -0.390625 C 8.972656 -0.203125 8.546875 -0.0546875 8.078125 0.046875 C 7.609375 0.148438 7.050781 0.203125 6.40625 0.203125 Z M 6.40625 0.203125 "/></g></g></g><g fill="#000000" fill-opacity="1"><g transform="translate(85.658477, 220.810766)"><g><path d="M 3.5625 -16.234375 L 3.5625 -11.375 C 3.5625 -11.101562 3.550781 -10.820312 3.53125 -10.53125 C 3.519531 -10.25 3.5 -9.992188 3.46875 -9.765625 L 3.578125 -9.765625 C 3.816406 -10.160156 4.117188 -10.492188 4.484375 -10.765625 C 4.847656 -11.046875 5.257812 -11.257812 5.71875 -11.40625 C 6.1875 -11.550781 6.679688 -11.625 7.203125 -11.625 C 8.117188 -11.625 8.882812 -11.476562 9.5 -11.1875 C 10.113281 -10.894531 10.578125 -10.441406 10.890625 -9.828125 C 11.203125 -9.210938 11.359375 -8.421875 11.359375 -7.453125 L 11.359375 0 L 9.640625 0 L 9.640625 -7.328125 C 9.640625 -8.285156 9.421875 -9 8.984375 -9.46875 C 8.554688 -9.9375 7.894531 -10.171875 7 -10.171875 C 6.144531 -10.171875 5.46875 -10.007812 4.96875 -9.6875 C 4.46875 -9.363281 4.109375 -8.890625 3.890625 -8.265625 C 3.671875 -7.640625 3.5625 -6.875 3.5625 -5.96875 L 3.5625 0 L 1.828125 0 L 1.828125 -16.234375 Z M 3.5625 -16.234375 "/></g></g></g><g fill="#000000" fill-opacity="1"><g transform="translate(98.752989, 220.810766)"><g><path d="M 6.09375 -11.625 C 7.457031 -11.625 8.46875 -11.316406 9.125 -10.703125 C 9.789062 -10.085938 10.125 -9.109375 10.125 -7.765625 L 10.125 0 L 8.859375 0 L 8.53125 -1.6875 L 8.453125 -1.6875 C 8.128906 -1.269531 7.789062 -0.921875 7.4375 -0.640625 C 7.09375 -0.359375 6.691406 -0.144531 6.234375 0 C 5.785156 0.132812 5.226562 0.203125 4.5625 0.203125 C 3.875 0.203125 3.257812 0.0820312 2.71875 -0.15625 C 2.175781 -0.394531 1.75 -0.757812 1.4375 -1.25 C 1.132812 -1.75 0.984375 -2.378906 0.984375 -3.140625 C 0.984375 -4.273438 1.429688 -5.148438 2.328125 -5.765625 C 3.234375 -6.378906 4.613281 -6.710938 6.46875 -6.765625 L 8.4375 -6.859375 L 8.4375 -7.546875 C 8.4375 -8.535156 8.222656 -9.226562 7.796875 -9.625 C 7.378906 -10.019531 6.78125 -10.21875 6 -10.21875 C 5.40625 -10.21875 4.835938 -10.128906 4.296875 -9.953125 C 3.753906 -9.785156 3.238281 -9.582031 2.75 -9.34375 L 2.21875 -10.65625 C 2.738281 -10.925781 3.332031 -11.15625 4 -11.34375 C 4.664062 -11.53125 5.363281 -11.625 6.09375 -11.625 Z M 8.421875 -5.625 L 6.671875 -5.5625 C 5.242188 -5.5 4.238281 -5.265625 3.65625 -4.859375 C 3.070312 -4.453125 2.78125 -3.875 2.78125 -3.125 C 2.78125 -2.46875 2.976562 -1.984375 3.375 -1.671875 C 3.769531 -1.359375 4.296875 -1.203125 4.953125 -1.203125 C 5.972656 -1.203125 6.804688 -1.484375 7.453125 -2.046875 C 8.097656 -2.609375 8.421875 -3.453125 8.421875 -4.578125 Z M 8.421875 -5.625 "/></g></g></g><g fill="#000000" fill-opacity="1"><g transform="translate(110.617284, 220.810766)"><g><path d="M 7.234375 -11.640625 C 8.585938 -11.640625 9.613281 -11.304688 10.3125 -10.640625 C 11.007812 -9.972656 11.359375 -8.910156 11.359375 -7.453125 L 11.359375 0 L 9.640625 0 L 9.640625 -7.328125 C 9.640625 -8.285156 9.421875 -9 8.984375 -9.46875 C 8.554688 -9.9375 7.894531 -10.171875 7 -10.171875 C 5.726562 -10.171875 4.835938 -9.8125 4.328125 -9.09375 C 3.816406 -8.382812 3.5625 -7.347656 3.5625 -5.984375 L 3.5625 0 L 1.828125 0 L 1.828125 -11.4375 L 3.21875 -11.4375 L 3.484375 -9.78125 L 3.578125 -9.78125 C 3.816406 -10.1875 4.125 -10.523438 4.5 -10.796875 C 4.875 -11.078125 5.296875 -11.285156 5.765625 -11.421875 C 6.234375 -11.566406 6.722656 -11.640625 7.234375 -11.640625 Z M 7.234375 -11.640625 "/></g></g></g><g fill="#000000" fill-opacity="1"><g transform="translate(123.711797, 220.810766)"><g><path d="M 11.125 -0.015625 L 9.09375 -6.671875 C 9 -6.960938 8.910156 -7.242188 8.828125 -7.515625 C 8.753906 -7.785156 8.679688 -8.046875 8.609375 -8.296875 C 8.546875 -8.554688 8.488281 -8.796875 8.4375 -9.015625 C 8.382812 -9.234375 8.34375 -9.421875 8.3125 -9.578125 L 8.234375 -9.578125 C 8.210938 -9.421875 8.175781 -9.234375 8.125 -9.015625 C 8.070312 -8.796875 8.015625 -8.554688 7.953125 -8.296875 C 7.890625 -8.046875 7.816406 -7.78125 7.734375 -7.5 C 7.660156 -7.21875 7.578125 -6.929688 7.484375 -6.640625 L 5.34375 -0.015625 L 3.40625 -0.015625 L 0.25 -11.453125 L 2.046875 -11.453125 L 3.6875 -5.140625 C 3.800781 -4.722656 3.90625 -4.3125 4 -3.90625 C 4.101562 -3.5 4.191406 -3.113281 4.265625 -2.75 C 4.335938 -2.394531 4.394531 -2.085938 4.4375 -1.828125 L 4.515625 -1.828125 C 4.554688 -1.992188 4.601562 -2.195312 4.65625 -2.4375 C 4.707031 -2.6875 4.765625 -2.945312 4.828125 -3.21875 C 4.898438 -3.5 4.972656 -3.773438 5.046875 -4.046875 C 5.117188 -4.328125 5.195312 -4.585938 5.28125 -4.828125 L 7.390625 -11.453125 L 9.25 -11.453125 L 11.28125 -4.84375 C 11.382812 -4.507812 11.488281 -4.160156 11.59375 -3.796875 C 11.695312 -3.429688 11.789062 -3.082031 11.875 -2.75 C 11.957031 -2.414062 12.015625 -2.113281 12.046875 -1.84375 L 12.125 -1.84375 C 12.15625 -2.082031 12.207031 -2.375 12.28125 -2.71875 C 12.363281 -3.070312 12.453125 -3.457031 12.546875 -3.875 C 12.648438 -4.289062 12.757812 -4.710938 12.875 -5.140625 L 14.53125 -11.453125 L 16.296875 -11.453125 L 13.140625 -0.015625 Z M 11.125 -0.015625 "/></g></g></g><g fill="#000000" fill-opacity="1"><g transform="translate(140.257171, 220.810766)"><g><path d="M 6.09375 -11.625 C 7.457031 -11.625 8.46875 -11.316406 9.125 -10.703125 C 9.789062 -10.085938 10.125 -9.109375 10.125 -7.765625 L 10.125 0 L 8.859375 0 L 8.53125 -1.6875 L 8.453125 -1.6875 C 8.128906 -1.269531 7.789062 -0.921875 7.4375 -0.640625 C 7.09375 -0.359375 6.691406 -0.144531 6.234375 0 C 5.785156 0.132812 5.226562 0.203125 4.5625 0.203125 C 3.875 0.203125 3.257812 0.0820312 2.71875 -0.15625 C 2.175781 -0.394531 1.75 -0.757812 1.4375 -1.25 C 1.132812 -1.75 0.984375 -2.378906 0.984375 -3.140625 C 0.984375 -4.273438 1.429688 -5.148438 2.328125 -5.765625 C 3.234375 -6.378906 4.613281 -6.710938 6.46875 -6.765625 L 8.4375 -6.859375 L 8.4375 -7.546875 C 8.4375 -8.535156 8.222656 -9.226562 7.796875 -9.625 C 7.378906 -10.019531 6.78125 -10.21875 6 -10.21875 C 5.40625 -10.21875 4.835938 -10.128906 4.296875 -9.953125 C 3.753906 -9.785156 3.238281 -9.582031 2.75 -9.34375 L 2.21875 -10.65625 C 2.738281 -10.925781 3.332031 -11.15625 4 -11.34375 C 4.664062 -11.53125 5.363281 -11.625 6.09375 -11.625 Z M 8.421875 -5.625 L 6.671875 -5.5625 C 5.242188 -5.5 4.238281 -5.265625 3.65625 -4.859375 C 3.070312 -4.453125 2.78125 -3.875 2.78125 -3.125 C 2.78125 -2.46875 2.976562 -1.984375 3.375 -1.671875 C 3.769531 -1.359375 4.296875 -1.203125 4.953125 -1.203125 C 5.972656 -1.203125 6.804688 -1.484375 7.453125 -2.046875 C 8.097656 -2.609375 8.421875 -3.453125 8.421875 -4.578125 Z M 2.984375 -14.53125 C 2.984375 -14.882812 3.070312 -15.140625 3.25 -15.296875 C 3.4375 -15.460938 3.660156 -15.546875 3.921875 -15.546875 C 4.191406 -15.546875 4.414062 -15.460938 4.59375 -15.296875 C 4.78125 -15.140625 4.875 -14.882812 4.875 -14.53125 C 4.875 -14.195312 4.78125 -13.941406 4.59375 -13.765625 C 4.414062 -13.597656 4.191406 -13.515625 3.921875 -13.515625 C 3.660156 -13.515625 3.4375 -13.597656 3.25 -13.765625 C 3.070312 -13.941406 2.984375 -14.195312 2.984375 -14.53125 Z M 6.984375 -14.53125 C 6.984375 -14.882812 7.070312 -15.140625 7.25 -15.296875 C 7.4375 -15.460938 7.660156 -15.546875 7.921875 -15.546875 C 8.179688 -15.546875 8.40625 -15.460938 8.59375 -15.296875 C 8.78125 -15.140625 8.875 -14.882812 8.875 -14.53125 C 8.875 -14.195312 8.78125 -13.941406 8.59375 -13.765625 C 8.40625 -13.597656 8.179688 -13.515625 7.921875 -13.515625 C 7.660156 -13.515625 7.4375 -13.597656 7.25 -13.765625 C 7.070312 -13.941406 6.984375 -14.195312 6.984375 -14.53125 Z M 6.984375 -14.53125 "/></g></g></g><g fill="#000000" fill-opacity="1"><g transform="translate(152.121467, 220.810766)"><g><path d="M 3.5625 0 L 1.828125 0 L 1.828125 -16.234375 L 3.5625 -16.234375 Z M 3.5625 0 "/></g></g></g><g fill="#000000" fill-opacity="1"><g transform="translate(157.511485, 220.810766)"><g><path d="M 5.515625 -1.203125 C 5.796875 -1.203125 6.085938 -1.226562 6.390625 -1.28125 C 6.691406 -1.332031 6.9375 -1.390625 7.125 -1.453125 L 7.125 -0.109375 C 6.925781 -0.0234375 6.644531 0.046875 6.28125 0.109375 C 5.925781 0.171875 5.578125 0.203125 5.234375 0.203125 C 4.628906 0.203125 4.078125 0.0976562 3.578125 -0.109375 C 3.085938 -0.316406 2.691406 -0.675781 2.390625 -1.1875 C 2.097656 -1.695312 1.953125 -2.398438 1.953125 -3.296875 L 1.953125 -10.078125 L 0.328125 -10.078125 L 0.328125 -10.921875 L 1.96875 -11.59375 L 2.65625 -14.078125 L 3.703125 -14.078125 L 3.703125 -11.4375 L 7.046875 -11.4375 L 7.046875 -10.078125 L 3.703125 -10.078125 L 3.703125 -3.34375 C 3.703125 -2.632812 3.863281 -2.097656 4.1875 -1.734375 C 4.519531 -1.378906 4.960938 -1.203125 5.515625 -1.203125 Z M 5.515625 -1.203125 "/></g></g></g><g fill="#000000" fill-opacity="1"><g transform="translate(165.122149, 220.810766)"><g><path d="M 3.5625 -11.4375 L 3.5625 0 L 1.828125 0 L 1.828125 -11.4375 Z M 2.71875 -15.703125 C 3 -15.703125 3.238281 -15.609375 3.4375 -15.421875 C 3.644531 -15.242188 3.75 -14.957031 3.75 -14.5625 C 3.75 -14.1875 3.644531 -13.90625 3.4375 -13.71875 C 3.238281 -13.53125 3 -13.4375 2.71875 -13.4375 C 2.414062 -13.4375 2.164062 -13.53125 1.96875 -13.71875 C 1.769531 -13.90625 1.671875 -14.1875 1.671875 -14.5625 C 1.671875 -14.957031 1.769531 -15.242188 1.96875 -15.421875 C 2.164062 -15.609375 2.414062 -15.703125 2.71875 -15.703125 Z M 2.71875 -15.703125 "/></g></g></g><g fill="#000000" fill-opacity="1"><g transform="translate(170.512167, 220.810766)"><g><path d="M 7.234375 -11.640625 C 8.585938 -11.640625 9.613281 -11.304688 10.3125 -10.640625 C 11.007812 -9.972656 11.359375 -8.910156 11.359375 -7.453125 L 11.359375 0 L 9.640625 0 L 9.640625 -7.328125 C 9.640625 -8.285156 9.421875 -9 8.984375 -9.46875 C 8.554688 -9.9375 7.894531 -10.171875 7 -10.171875 C 5.726562 -10.171875 4.835938 -9.8125 4.328125 -9.09375 C 3.816406 -8.382812 3.5625 -7.347656 3.5625 -5.984375 L 3.5625 0 L 1.828125 0 L 1.828125 -11.4375 L 3.21875 -11.4375 L 3.484375 -9.78125 L 3.578125 -9.78125 C 3.816406 -10.1875 4.125 -10.523438 4.5 -10.796875 C 4.875 -11.078125 5.296875 -11.285156 5.765625 -11.421875 C 6.234375 -11.566406 6.722656 -11.640625 7.234375 -11.640625 Z M 7.234375 -11.640625 "/></g></g></g><g fill="#000000" fill-opacity="1"><g transform="translate(183.606679, 220.810766)"><g/></g></g><g fill="#000000" fill-opacity="1"><g transform="translate(189.153081, 220.810766)"><g><path d="M 6.921875 -10.078125 L 4.0625 -10.078125 L 4.0625 0 L 2.34375 0 L 2.34375 -10.078125 L 0.3125 -10.078125 L 0.3125 -10.90625 L 2.34375 -11.484375 L 2.34375 -12.25 C 2.34375 -13.207031 2.484375 -13.984375 2.765625 -14.578125 C 3.046875 -15.179688 3.457031 -15.625 4 -15.90625 C 4.539062 -16.195312 5.203125 -16.34375 5.984375 -16.34375 C 6.421875 -16.34375 6.820312 -16.300781 7.1875 -16.21875 C 7.550781 -16.144531 7.875 -16.0625 8.15625 -15.96875 L 7.703125 -14.59375 C 7.472656 -14.675781 7.207031 -14.75 6.90625 -14.8125 C 6.613281 -14.875 6.3125 -14.90625 6 -14.90625 C 5.34375 -14.90625 4.851562 -14.691406 4.53125 -14.265625 C 4.21875 -13.835938 4.0625 -13.171875 4.0625 -12.265625 L 4.0625 -11.4375 L 6.921875 -11.4375 Z M 6.921875 -10.078125 "/></g></g></g><g fill="#000000" fill-opacity="1"><g transform="translate(196.336296, 220.810766)"><g><path d="M 11.265625 -11.4375 L 11.265625 0 L 9.84375 0 L 9.59375 -1.609375 L 9.5 -1.609375 C 9.257812 -1.210938 8.953125 -0.878906 8.578125 -0.609375 C 8.203125 -0.335938 7.78125 -0.132812 7.3125 0 C 6.84375 0.132812 6.34375 0.203125 5.8125 0.203125 C 4.914062 0.203125 4.160156 0.0546875 3.546875 -0.234375 C 2.929688 -0.523438 2.46875 -0.972656 2.15625 -1.578125 C 1.851562 -2.191406 1.703125 -2.976562 1.703125 -3.9375 L 1.703125 -11.4375 L 3.453125 -11.4375 L 3.453125 -4.0625 C 3.453125 -3.113281 3.664062 -2.40625 4.09375 -1.9375 C 4.53125 -1.46875 5.1875 -1.234375 6.0625 -1.234375 C 6.914062 -1.234375 7.59375 -1.390625 8.09375 -1.703125 C 8.601562 -2.023438 8.96875 -2.5 9.1875 -3.125 C 9.40625 -3.75 9.515625 -4.507812 9.515625 -5.40625 L 9.515625 -11.4375 Z M 3.59375 -14.53125 C 3.59375 -14.882812 3.679688 -15.140625 3.859375 -15.296875 C 4.046875 -15.460938 4.269531 -15.546875 4.53125 -15.546875 C 4.800781 -15.546875 5.023438 -15.460938 5.203125 -15.296875 C 5.390625 -15.140625 5.484375 -14.882812 5.484375 -14.53125 C 5.484375 -14.195312 5.390625 -13.941406 5.203125 -13.765625 C 5.023438 -13.597656 4.800781 -13.515625 4.53125 -13.515625 C 4.269531 -13.515625 4.046875 -13.597656 3.859375 -13.765625 C 3.679688 -13.941406 3.59375 -14.195312 3.59375 -14.53125 Z M 7.59375 -14.53125 C 7.59375 -14.882812 7.679688 -15.140625 7.859375 -15.296875 C 8.046875 -15.460938 8.269531 -15.546875 8.53125 -15.546875 C 8.789062 -15.546875 9.015625 -15.460938 9.203125 -15.296875 C 9.390625 -15.140625 9.484375 -14.882812 9.484375 -14.53125 C 9.484375 -14.195312 9.390625 -13.941406 9.203125 -13.765625 C 9.015625 -13.597656 8.789062 -13.515625 8.53125 -13.515625 C 8.269531 -13.515625 8.046875 -13.597656 7.859375 -13.765625 C 7.679688 -13.941406 7.59375 -14.195312 7.59375 -14.53125 Z M 7.59375 -14.53125 "/></g></g></g><g fill="#000000" fill-opacity="1"><g transform="translate(209.430809, 220.810766)"><g><path d="M 7.015625 -11.640625 C 7.242188 -11.640625 7.484375 -11.625 7.734375 -11.59375 C 7.984375 -11.570312 8.207031 -11.539062 8.40625 -11.5 L 8.1875 -9.890625 C 8 -9.941406 7.789062 -9.976562 7.5625 -10 C 7.332031 -10.03125 7.117188 -10.046875 6.921875 -10.046875 C 6.453125 -10.046875 6.015625 -9.953125 5.609375 -9.765625 C 5.203125 -9.585938 4.847656 -9.328125 4.546875 -8.984375 C 4.242188 -8.640625 4.003906 -8.222656 3.828125 -7.734375 C 3.648438 -7.253906 3.5625 -6.71875 3.5625 -6.125 L 3.5625 0 L 1.828125 0 L 1.828125 -11.4375 L 3.265625 -11.4375 L 3.453125 -9.328125 L 3.53125 -9.328125 C 3.757812 -9.742188 4.039062 -10.128906 4.375 -10.484375 C 4.707031 -10.835938 5.09375 -11.117188 5.53125 -11.328125 C 5.976562 -11.535156 6.472656 -11.640625 7.015625 -11.640625 Z M 7.015625 -11.640625 "/></g></g></g><g fill="#000000" fill-opacity="1"><g transform="translate(218.157008, 220.810766)"><g/></g></g><g fill="#000000" fill-opacity="1"><g transform="translate(223.70341, 220.810766)"><g><path d="M 10.6875 -4.0625 C 10.6875 -3.15625 10.460938 -2.382812 10.015625 -1.75 C 9.566406 -1.113281 8.9375 -0.628906 8.125 -0.296875 C 7.320312 0.0351562 6.375 0.203125 5.28125 0.203125 C 4.707031 0.203125 4.160156 0.175781 3.640625 0.125 C 3.128906 0.0703125 2.65625 -0.00390625 2.21875 -0.109375 C 1.789062 -0.210938 1.414062 -0.34375 1.09375 -0.5 L 1.09375 -2.203125 C 1.613281 -1.984375 2.25 -1.78125 3 -1.59375 C 3.75 -1.414062 4.535156 -1.328125 5.359375 -1.328125 C 6.128906 -1.328125 6.773438 -1.425781 7.296875 -1.625 C 7.828125 -1.832031 8.226562 -2.128906 8.5 -2.515625 C 8.78125 -2.898438 8.921875 -3.363281 8.921875 -3.90625 C 8.921875 -4.425781 8.804688 -4.863281 8.578125 -5.21875 C 8.347656 -5.570312 7.96875 -5.890625 7.4375 -6.171875 C 6.90625 -6.460938 6.175781 -6.773438 5.25 -7.109375 C 4.601562 -7.335938 4.035156 -7.585938 3.546875 -7.859375 C 3.054688 -8.128906 2.640625 -8.4375 2.296875 -8.78125 C 1.960938 -9.132812 1.710938 -9.539062 1.546875 -10 C 1.378906 -10.457031 1.296875 -10.984375 1.296875 -11.578125 C 1.296875 -12.390625 1.5 -13.082031 1.90625 -13.65625 C 2.320312 -14.238281 2.894531 -14.6875 3.625 -15 C 4.363281 -15.3125 5.207031 -15.46875 6.15625 -15.46875 C 6.976562 -15.46875 7.734375 -15.390625 8.421875 -15.234375 C 9.109375 -15.085938 9.742188 -14.882812 10.328125 -14.625 L 9.765625 -13.09375 C 9.222656 -13.320312 8.644531 -13.515625 8.03125 -13.671875 C 7.414062 -13.828125 6.78125 -13.90625 6.125 -13.90625 C 5.46875 -13.90625 4.914062 -13.804688 4.46875 -13.609375 C 4.019531 -13.421875 3.675781 -13.148438 3.4375 -12.796875 C 3.207031 -12.453125 3.09375 -12.039062 3.09375 -11.5625 C 3.09375 -11.03125 3.203125 -10.585938 3.421875 -10.234375 C 3.648438 -9.878906 4.007812 -9.5625 4.5 -9.28125 C 5 -9.007812 5.660156 -8.722656 6.484375 -8.421875 C 7.378906 -8.097656 8.140625 -7.753906 8.765625 -7.390625 C 9.390625 -7.023438 9.863281 -6.578125 10.1875 -6.046875 C 10.519531 -5.523438 10.6875 -4.863281 10.6875 -4.0625 Z M 10.6875 -4.0625 "/></g></g></g><g fill="#000000" fill-opacity="1"><g transform="translate(235.411321, 220.810766)"><g><path d="M 5.515625 -1.203125 C 5.796875 -1.203125 6.085938 -1.226562 6.390625 -1.28125 C 6.691406 -1.332031 6.9375 -1.390625 7.125 -1.453125 L 7.125 -0.109375 C 6.925781 -0.0234375 6.644531 0.046875 6.28125 0.109375 C 5.925781 0.171875 5.578125 0.203125 5.234375 0.203125 C 4.628906 0.203125 4.078125 0.0976562 3.578125 -0.109375 C 3.085938 -0.316406 2.691406 -0.675781 2.390625 -1.1875 C 2.097656 -1.695312 1.953125 -2.398438 1.953125 -3.296875 L 1.953125 -10.078125 L 0.328125 -10.078125 L 0.328125 -10.921875 L 1.96875 -11.59375 L 2.65625 -14.078125 L 3.703125 -14.078125 L 3.703125 -11.4375 L 7.046875 -11.4375 L 7.046875 -10.078125 L 3.703125 -10.078125 L 3.703125 -3.34375 C 3.703125 -2.632812 3.863281 -2.097656 4.1875 -1.734375 C 4.519531 -1.378906 4.960938 -1.203125 5.515625 -1.203125 Z M 5.515625 -1.203125 "/></g></g></g><g fill="#000000" fill-opacity="1"><g transform="translate(243.021985, 220.810766)"><g><path d="M 7.015625 -11.640625 C 7.242188 -11.640625 7.484375 -11.625 7.734375 -11.59375 C 7.984375 -11.570312 8.207031 -11.539062 8.40625 -11.5 L 8.1875 -9.890625 C 8 -9.941406 7.789062 -9.976562 7.5625 -10 C 7.332031 -10.03125 7.117188 -10.046875 6.921875 -10.046875 C 6.453125 -10.046875 6.015625 -9.953125 5.609375 -9.765625 C 5.203125 -9.585938 4.847656 -9.328125 4.546875 -8.984375 C 4.242188 -8.640625 4.003906 -8.222656 3.828125 -7.734375 C 3.648438 -7.253906 3.5625 -6.71875 3.5625 -6.125 L 3.5625 0 L 1.828125 0 L 1.828125 -11.4375 L 3.265625 -11.4375 L 3.453125 -9.328125 L 3.53125 -9.328125 C 3.757812 -9.742188 4.039062 -10.128906 4.375 -10.484375 C 4.707031 -10.835938 5.09375 -11.117188 5.53125 -11.328125 C 5.976562 -11.535156 6.472656 -11.640625 7.015625 -11.640625 Z M 7.015625 -11.640625 "/></g></g></g><g fill="#000000" fill-opacity="1"><g transform="translate(251.748173, 220.810766)"><g><path d="M 6.09375 -11.625 C 7.457031 -11.625 8.46875 -11.316406 9.125 -10.703125 C 9.789062 -10.085938 10.125 -9.109375 10.125 -7.765625 L 10.125 0 L 8.859375 0 L 8.53125 -1.6875 L 8.453125 -1.6875 C 8.128906 -1.269531 7.789062 -0.921875 7.4375 -0.640625 C 7.09375 -0.359375 6.691406 -0.144531 6.234375 0 C 5.785156 0.132812 5.226562 0.203125 4.5625 0.203125 C 3.875 0.203125 3.257812 0.0820312 2.71875 -0.15625 C 2.175781 -0.394531 1.75 -0.757812 1.4375 -1.25 C 1.132812 -1.75 0.984375 -2.378906 0.984375 -3.140625 C 0.984375 -4.273438 1.429688 -5.148438 2.328125 -5.765625 C 3.234375 -6.378906 4.613281 -6.710938 6.46875 -6.765625 L 8.4375 -6.859375 L 8.4375 -7.546875 C 8.4375 -8.535156 8.222656 -9.226562 7.796875 -9.625 C 7.378906 -10.019531 6.78125 -10.21875 6 -10.21875 C 5.40625 -10.21875 4.835938 -10.128906 4.296875 -9.953125 C 3.753906 -9.785156 3.238281 -9.582031 2.75 -9.34375 L 2.21875 -10.65625 C 2.738281 -10.925781 3.332031 -11.15625 4 -11.34375 C 4.664062 -11.53125 5.363281 -11.625 6.09375 -11.625 Z M 8.421875 -5.625 L 6.671875 -5.5625 C 5.242188 -5.5 4.238281 -5.265625 3.65625 -4.859375 C 3.070312 -4.453125 2.78125 -3.875 2.78125 -3.125 C 2.78125 -2.46875 2.976562 -1.984375 3.375 -1.671875 C 3.769531 -1.359375 4.296875 -1.203125 4.953125 -1.203125 C 5.972656 -1.203125 6.804688 -1.484375 7.453125 -2.046875 C 8.097656 -2.609375 8.421875 -3.453125 8.421875 -4.578125 Z M 8.421875 -5.625 "/></g></g></g><g fill="#000000" fill-opacity="1"><g transform="translate(263.612469, 220.810766)"><g><path d="M 6.921875 -10.078125 L 4.0625 -10.078125 L 4.0625 0 L 2.34375 0 L 2.34375 -10.078125 L 0.3125 -10.078125 L 0.3125 -10.90625 L 2.34375 -11.484375 L 2.34375 -12.25 C 2.34375 -13.207031 2.484375 -13.984375 2.765625 -14.578125 C 3.046875 -15.179688 3.457031 -15.625 4 -15.90625 C 4.539062 -16.195312 5.203125 -16.34375 5.984375 -16.34375 C 6.421875 -16.34375 6.820312 -16.300781 7.1875 -16.21875 C 7.550781 -16.144531 7.875 -16.0625 8.15625 -15.96875 L 7.703125 -14.59375 C 7.472656 -14.675781 7.207031 -14.75 6.90625 -14.8125 C 6.613281 -14.875 6.3125 -14.90625 6 -14.90625 C 5.34375 -14.90625 4.851562 -14.691406 4.53125 -14.265625 C 4.21875 -13.835938 4.0625 -13.171875 4.0625 -12.265625 L 4.0625 -11.4375 L 6.921875 -11.4375 Z M 6.921875 -10.078125 "/></g></g></g><g fill="#000000" fill-opacity="1"><g transform="translate(270.795673, 220.810766)"><g><path d="M 7.015625 -11.640625 C 7.242188 -11.640625 7.484375 -11.625 7.734375 -11.59375 C 7.984375 -11.570312 8.207031 -11.539062 8.40625 -11.5 L 8.1875 -9.890625 C 8 -9.941406 7.789062 -9.976562 7.5625 -10 C 7.332031 -10.03125 7.117188 -10.046875 6.921875 -10.046875 C 6.453125 -10.046875 6.015625 -9.953125 5.609375 -9.765625 C 5.203125 -9.585938 4.847656 -9.328125 4.546875 -8.984375 C 4.242188 -8.640625 4.003906 -8.222656 3.828125 -7.734375 C 3.648438 -7.253906 3.5625 -6.71875 3.5625 -6.125 L 3.5625 0 L 1.828125 0 L 1.828125 -11.4375 L 3.265625 -11.4375 L 3.453125 -9.328125 L 3.53125 -9.328125 C 3.757812 -9.742188 4.039062 -10.128906 4.375 -10.484375 C 4.707031 -10.835938 5.09375 -11.117188 5.53125 -11.328125 C 5.976562 -11.535156 6.472656 -11.640625 7.015625 -11.640625 Z M 7.015625 -11.640625 "/></g></g></g><g fill="#000000" fill-opacity="1"><g transform="translate(279.521884, 220.810766)"><g><path d="M 6.21875 -11.640625 C 7.195312 -11.640625 8.03125 -11.421875 8.71875 -10.984375 C 9.414062 -10.554688 9.945312 -9.953125 10.3125 -9.171875 C 10.6875 -8.398438 10.875 -7.5 10.875 -6.46875 L 10.875 -5.390625 L 2.984375 -5.390625 C 3.003906 -4.046875 3.335938 -3.019531 3.984375 -2.3125 C 4.628906 -1.613281 5.539062 -1.265625 6.71875 -1.265625 C 7.4375 -1.265625 8.070312 -1.332031 8.625 -1.46875 C 9.1875 -1.601562 9.765625 -1.796875 10.359375 -2.046875 L 10.359375 -0.53125 C 9.785156 -0.269531 9.210938 -0.0820312 8.640625 0.03125 C 8.078125 0.144531 7.410156 0.203125 6.640625 0.203125 C 5.546875 0.203125 4.585938 -0.0195312 3.765625 -0.46875 C 2.953125 -0.914062 2.316406 -1.570312 1.859375 -2.4375 C 1.410156 -3.3125 1.1875 -4.375 1.1875 -5.625 C 1.1875 -6.863281 1.394531 -7.929688 1.8125 -8.828125 C 2.226562 -9.722656 2.8125 -10.414062 3.5625 -10.90625 C 4.3125 -11.394531 5.195312 -11.640625 6.21875 -11.640625 Z M 6.203125 -10.21875 C 5.273438 -10.21875 4.535156 -9.914062 3.984375 -9.3125 C 3.441406 -8.707031 3.117188 -7.863281 3.015625 -6.78125 L 9.0625 -6.78125 C 9.050781 -7.457031 8.941406 -8.054688 8.734375 -8.578125 C 8.535156 -9.097656 8.226562 -9.5 7.8125 -9.78125 C 7.394531 -10.070312 6.859375 -10.21875 6.203125 -10.21875 Z M 6.203125 -10.21875 "/></g></g></g><g fill="#000000" fill-opacity="1"><g transform="translate(291.511286, 220.810766)"><g><path d="M 6.40625 0.203125 C 5.375 0.203125 4.460938 -0.00390625 3.671875 -0.421875 C 2.890625 -0.847656 2.28125 -1.492188 1.84375 -2.359375 C 1.40625 -3.234375 1.1875 -4.332031 1.1875 -5.65625 C 1.1875 -7.039062 1.414062 -8.171875 1.875 -9.046875 C 2.34375 -9.921875 2.984375 -10.570312 3.796875 -11 C 4.609375 -11.425781 5.535156 -11.640625 6.578125 -11.640625 C 7.140625 -11.640625 7.6875 -11.582031 8.21875 -11.46875 C 8.75 -11.351562 9.1875 -11.207031 9.53125 -11.03125 L 9.015625 -9.578125 C 8.660156 -9.722656 8.253906 -9.847656 7.796875 -9.953125 C 7.347656 -10.066406 6.925781 -10.125 6.53125 -10.125 C 5.738281 -10.125 5.078125 -9.953125 4.546875 -9.609375 C 4.023438 -9.273438 3.632812 -8.773438 3.375 -8.109375 C 3.113281 -7.453125 2.984375 -6.640625 2.984375 -5.671875 C 2.984375 -4.742188 3.109375 -3.953125 3.359375 -3.296875 C 3.617188 -2.648438 4 -2.15625 4.5 -1.8125 C 5 -1.46875 5.628906 -1.296875 6.390625 -1.296875 C 6.992188 -1.296875 7.539062 -1.359375 8.03125 -1.484375 C 8.519531 -1.609375 8.960938 -1.757812 9.359375 -1.9375 L 9.359375 -0.390625 C 8.972656 -0.203125 8.546875 -0.0546875 8.078125 0.046875 C 7.609375 0.148438 7.050781 0.203125 6.40625 0.203125 Z M 6.40625 0.203125 "/></g></g></g><g fill="#000000" fill-opacity="1"><g transform="translate(301.738756, 220.810766)"><g><path d="M 3.5625 -16.234375 L 3.5625 -11.375 C 3.5625 -11.101562 3.550781 -10.820312 3.53125 -10.53125 C 3.519531 -10.25 3.5 -9.992188 3.46875 -9.765625 L 3.578125 -9.765625 C 3.816406 -10.160156 4.117188 -10.492188 4.484375 -10.765625 C 4.847656 -11.046875 5.257812 -11.257812 5.71875 -11.40625 C 6.1875 -11.550781 6.679688 -11.625 7.203125 -11.625 C 8.117188 -11.625 8.882812 -11.476562 9.5 -11.1875 C 10.113281 -10.894531 10.578125 -10.441406 10.890625 -9.828125 C 11.203125 -9.210938 11.359375 -8.421875 11.359375 -7.453125 L 11.359375 0 L 9.640625 0 L 9.640625 -7.328125 C 9.640625 -8.285156 9.421875 -9 8.984375 -9.46875 C 8.554688 -9.9375 7.894531 -10.171875 7 -10.171875 C 6.144531 -10.171875 5.46875 -10.007812 4.96875 -9.6875 C 4.46875 -9.363281 4.109375 -8.890625 3.890625 -8.265625 C 3.671875 -7.640625 3.5625 -6.875 3.5625 -5.96875 L 3.5625 0 L 1.828125 0 L 1.828125 -16.234375 Z M 3.5625 -16.234375 "/></g></g></g><g fill="#000000" fill-opacity="1"><g transform="translate(314.833268, 220.810766)"><g><path d="M 5.515625 -1.203125 C 5.796875 -1.203125 6.085938 -1.226562 6.390625 -1.28125 C 6.691406 -1.332031 6.9375 -1.390625 7.125 -1.453125 L 7.125 -0.109375 C 6.925781 -0.0234375 6.644531 0.046875 6.28125 0.109375 C 5.925781 0.171875 5.578125 0.203125 5.234375 0.203125 C 4.628906 0.203125 4.078125 0.0976562 3.578125 -0.109375 C 3.085938 -0.316406 2.691406 -0.675781 2.390625 -1.1875 C 2.097656 -1.695312 1.953125 -2.398438 1.953125 -3.296875 L 1.953125 -10.078125 L 0.328125 -10.078125 L 0.328125 -10.921875 L 1.96875 -11.59375 L 2.65625 -14.078125 L 3.703125 -14.078125 L 3.703125 -11.4375 L 7.046875 -11.4375 L 7.046875 -10.078125 L 3.703125 -10.078125 L 3.703125 -3.34375 C 3.703125 -2.632812 3.863281 -2.097656 4.1875 -1.734375 C 4.519531 -1.378906 4.960938 -1.203125 5.515625 -1.203125 Z M 5.515625 -1.203125 "/></g></g></g></svg>