<svg xmlns="http://www.w3.org/2000/svg" xmlns:xlink="http://www.w3.org/1999/xlink" width="1500" zoomAndPan="magnify" viewBox="0 0 1125 1124.99995" height="1500" preserveAspectRatio="xMidYMid meet" version="1.0"><defs><g/><clipPath id="95536cd1e4"><path d="M 88 568.695312 L 1037 568.695312 L 1037 577.695312 L 88 577.695312 Z M 88 568.695312 " clip-rule="nonzero"/></clipPath></defs><g fill="#ffffff" fill-opacity="1"><g transform="translate(1.927759, 516.823354)"><g><path d="M 24.546875 0 L 24.546875 -132.984375 L 33.484375 -132.984375 L 33.484375 0 Z M 24.546875 0 "/></g></g></g><g fill="#ffffff" fill-opacity="1"><g transform="translate(59.956109, 516.823354)"><g><path d="M 33.109375 -111.78125 L 33.484375 -95.96875 L 33.484375 0 L 24.546875 0 L 24.546875 -134.109375 L 28.640625 -134.109375 L 116.25 -33.109375 C 122.195312 -26.035156 126.785156 -20.394531 130.015625 -16.1875 C 129.515625 -22.132812 129.265625 -28.953125 129.265625 -36.640625 L 129.265625 -132.984375 L 138.203125 -132.984375 L 138.203125 1.109375 L 134.109375 1.109375 L 44.828125 -101.734375 C 38.628906 -108.804688 34.660156 -113.519531 32.921875 -115.875 Z M 33.109375 -111.78125 "/></g></g></g><g fill="#ffffff" fill-opacity="1"><g transform="translate(222.69585, 516.823354)"><g><path d="M 31.625 -46.125 L 12.46875 0 L 2.96875 0 L 58.96875 -133.921875 L 64.171875 -133.921875 L 120.34375 0 L 110.296875 0 L 91.140625 -46.125 Z M 61.015625 -119.046875 C 60.890625 -118.921875 60.640625 -118.175781 60.265625 -116.8125 C 58.523438 -111.476562 56.847656 -106.953125 55.234375 -103.234375 L 34.78125 -53.75 L 87.984375 -53.75 L 67.515625 -103.046875 C 63.179688 -112.472656 61.015625 -117.804688 61.015625 -119.046875 Z M 61.015625 -119.046875 "/></g></g></g><g fill="#ffffff" fill-opacity="1"><g transform="translate(346.006089, 516.823354)"><g/></g></g><g fill="#ffffff" fill-opacity="1"><g transform="translate(412.961871, 516.823354)"><g><path d="M 104.53125 -132.984375 L 47.984375 -68.640625 C 55.546875 -59.585938 64.253906 -49.476562 74.109375 -38.3125 C 83.972656 -27.15625 90.363281 -20.273438 93.28125 -17.671875 C 96.195312 -15.066406 98.488281 -13.113281 100.15625 -11.8125 C 101.832031 -10.507812 104.40625 -9.082031 107.875 -7.53125 C 111.351562 -5.976562 115.078125 -4.957031 119.046875 -4.46875 L 118.859375 1.484375 C 111.410156 1.359375 105.269531 0.210938 100.4375 -1.953125 C 95.601562 -4.117188 91.382812 -6.96875 87.78125 -10.5 C 84.1875 -14.039062 76.34375 -22.722656 64.25 -36.546875 C 52.164062 -50.367188 43.085938 -60.941406 37.015625 -68.265625 L 94.109375 -132.984375 Z M 33.484375 -132.984375 L 33.484375 0 L 24.546875 0 L 24.546875 -132.984375 Z M 33.484375 -132.984375 "/></g></g></g><g fill="#ffffff" fill-opacity="1"><g transform="translate(528.274636, 516.823354)"><g><path d="M 22.3125 0 L 22.3125 -120.71875 L 30.875 -120.71875 L 30.875 -7.8125 L 86.296875 -7.8125 L 86.296875 0 Z M 22.3125 0 "/></g></g></g><g fill="#ffffff" fill-opacity="1"><g transform="translate(617.549027, 516.823354)"><g><path d="M 22.3125 0 L 22.3125 -120.71875 L 30.875 -120.71875 L 30.875 0 Z M 22.3125 0 "/></g></g></g><g fill="#ffffff" fill-opacity="1"><g transform="translate(670.741665, 516.823354)"><g><path d="M 78.3125 -6.328125 L 73.28125 -6.328125 L 38.125 -91.703125 C 36.632812 -95.046875 35.148438 -98.953125 33.671875 -103.421875 C 33.671875 -103.296875 33.578125 -102.613281 33.390625 -101.375 C 33.203125 -100.132812 32.984375 -98.488281 32.734375 -96.4375 C 32.484375 -94.394531 32.234375 -92.691406 31.984375 -91.328125 L 18.046875 0 L 9.671875 0 L 29.390625 -121.453125 L 34.40625 -121.453125 L 71.984375 -32.359375 C 74.960938 -24.921875 76.453125 -21.015625 76.453125 -20.640625 C 77.316406 -23.242188 78.988281 -27.085938 81.46875 -32.171875 L 123.3125 -121.453125 L 128.34375 -121.453125 L 146.75 0 L 137.828125 0 L 124.625 -91.703125 C 123.75 -97.773438 123.3125 -101.800781 123.3125 -103.78125 L 117.921875 -91.515625 Z M 78.3125 -6.328125 "/></g></g></g><g fill="#ffffff" fill-opacity="1"><g transform="translate(827.157849, 516.823354)"><g><path d="M 22.3125 0 L 22.3125 -119.96875 C 31.613281 -120.957031 41.441406 -121.453125 51.796875 -121.453125 C 62.148438 -121.453125 70.921875 -118.691406 78.109375 -113.171875 C 85.304688 -107.660156 88.90625 -99.320312 88.90625 -88.15625 C 88.90625 -77 84.003906 -67.851562 74.203125 -60.71875 C 64.410156 -53.59375 52.820312 -50.03125 39.4375 -50.03125 C 38.8125 -50.03125 38.128906 -50.03125 37.390625 -50.03125 L 37.390625 -55.984375 C 37.878906 -55.984375 38.3125 -55.984375 38.6875 -55.984375 C 49.71875 -55.984375 59.328125 -58.894531 67.515625 -64.71875 C 75.703125 -70.550781 79.796875 -78.117188 79.796875 -87.421875 C 79.796875 -96.722656 76.910156 -103.476562 71.140625 -107.6875 C 65.378906 -111.90625 57.785156 -114.015625 48.359375 -114.015625 C 43.398438 -114.015625 37.570312 -113.769531 30.875 -113.28125 L 30.875 0 Z M 22.3125 0 "/></g></g></g><g fill="#ffffff" fill-opacity="1"><g transform="translate(925.359684, 516.823354)"><g><path d="M 95.609375 -120.71875 L 44.078125 -62.5 C 64.421875 -37.820312 78.34375 -22.195312 85.84375 -15.625 C 93.34375 -9.050781 100.8125 -5.332031 108.25 -4.46875 L 108.0625 1.296875 C 101.125 1.171875 95.484375 0.148438 91.140625 -1.765625 C 86.796875 -3.691406 82.953125 -6.265625 79.609375 -9.484375 C 76.265625 -12.710938 69.101562 -20.617188 58.125 -33.203125 C 47.144531 -45.785156 38.929688 -55.425781 33.484375 -62.125 L 85.375 -120.71875 Z M 30.875 -120.71875 L 30.875 0 L 22.3125 0 L 22.3125 -120.71875 Z M 30.875 -120.71875 "/></g></g></g><g fill="#ffffff" fill-opacity="1"><g transform="translate(1030.629023, 516.823354)"><g><path d="M 22.3125 0 L 22.3125 -120.71875 L 78.671875 -120.71875 L 78.671875 -113.28125 L 30.875 -113.28125 L 30.875 -69.375 L 74.03125 -69.375 L 74.03125 -62.125 L 30.875 -62.125 L 30.875 -7.8125 L 80.53125 -7.8125 L 80.53125 0 Z M 22.3125 0 "/></g></g></g><g clip-path="url(#95536cd1e4)"><path fill="#ffffff" d="M 562.496094 577.320312 L 88.121094 573.007812 L 562.496094 568.695312 L 1036.871094 573.007812 Z M 562.496094 577.320312 " fill-opacity="1" fill-rule="nonzero"/></g><g fill="#ffffff" fill-opacity="1"><g transform="translate(80.445553, 677.40825)"><g><path d="M 7.953125 0 L 7.953125 -43.046875 L 29.921875 -43.046875 L 29.921875 -40.515625 L 10.84375 -40.515625 L 10.84375 -24.6875 L 28.296875 -24.6875 L 28.296875 -22.21875 L 10.84375 -22.21875 L 10.84375 0 Z M 7.953125 0 "/></g></g></g><g fill="#ffffff" fill-opacity="1"><g transform="translate(113.735681, 677.40825)"><g><path d="M 9.15625 -13.546875 L 3.546875 0 L 0.71875 0 L 17.09375 -39.3125 L 18.71875 -39.3125 L 35.21875 0 L 32.15625 0 L 26.484375 -13.546875 Z M 17.765625 -34.859375 C 17.160156 -33.054688 16.617188 -31.550781 16.140625 -30.34375 L 10.109375 -15.890625 L 25.53125 -15.890625 L 19.5625 -30.28125 C 18.644531 -32.53125 18.046875 -34.054688 17.765625 -34.859375 Z M 17.765625 -34.859375 "/></g></g></g><g fill="#ffffff" fill-opacity="1"><g transform="translate(149.674566, 677.40825)"><g><path d="M 37.625 -1.921875 C 34.613281 -0.234375 30.425781 0.609375 25.0625 0.609375 C 19.707031 0.609375 14.992188 -1.316406 10.921875 -5.171875 C 6.847656 -9.023438 4.8125 -13.8125 4.8125 -19.53125 C 4.8125 -25.25 6.585938 -30.035156 10.140625 -33.890625 C 13.691406 -37.742188 18.28125 -39.671875 23.90625 -39.671875 C 28.4375 -39.671875 32.867188 -38.96875 37.203125 -37.5625 L 36.484375 -35.28125 C 32.304688 -36.5625 27.988281 -37.203125 23.53125 -37.203125 C 19.082031 -37.203125 15.34375 -35.503906 12.3125 -32.109375 C 9.28125 -28.722656 7.765625 -24.570312 7.765625 -19.65625 C 7.765625 -14.738281 9.519531 -10.550781 13.03125 -7.09375 C 16.539062 -3.644531 20.601562 -1.921875 25.21875 -1.921875 C 29.84375 -1.921875 33.675781 -2.566406 36.71875 -3.859375 Z M 37.625 -1.921875 "/></g></g></g><g fill="#ffffff" fill-opacity="1"><g transform="translate(189.947787, 677.40825)"><g><path d="M 37.140625 0 L 37.140625 -19.75 L 10 -19.75 L 10 0 L 7.21875 0 L 7.21875 -39.078125 L 10 -39.078125 L 10 -22.21875 L 37.140625 -22.21875 L 37.140625 -39.078125 L 39.921875 -39.078125 L 39.921875 0 Z M 37.140625 0 "/></g></g></g><g fill="#ffffff" fill-opacity="1"><g transform="translate(237.083708, 677.40825)"><g><path d="M 9.15625 -13.546875 L 3.546875 0 L 0.71875 0 L 17.09375 -39.3125 L 18.71875 -39.3125 L 35.21875 0 L 32.15625 0 L 26.484375 -13.546875 Z M 17.765625 -34.859375 C 17.160156 -33.054688 16.617188 -31.550781 16.140625 -30.34375 L 10.109375 -15.890625 L 25.53125 -15.890625 L 19.5625 -30.28125 C 18.644531 -32.53125 18.046875 -34.054688 17.765625 -34.859375 Z M 17.765625 -34.859375 "/></g></g></g><g fill="#ffffff" fill-opacity="1"><g transform="translate(273.022593, 677.40825)"><g><path d="M 7.21875 0 L 7.21875 -39.3125 L 8.546875 -39.3125 L 34.203125 -9.8125 C 35.117188 -8.769531 35.96875 -7.734375 36.75 -6.703125 C 37.53125 -5.679688 37.941406 -5.15625 37.984375 -5.125 C 37.910156 -6.082031 37.875 -7.96875 37.875 -10.78125 L 37.875 -39.078125 L 40.640625 -39.078125 L 40.640625 0.234375 L 39.3125 0.234375 L 13.1875 -29.734375 L 9.875 -33.78125 C 9.957031 -32.96875 10 -31.078125 10 -28.109375 L 10 0 Z M 7.21875 0 "/></g></g></g><g fill="#ffffff" fill-opacity="1"><g transform="translate(320.880911, 677.40825)"><g><path d="M 17.15625 -9.515625 L 28.421875 -38.296875 L 30.15625 -38.296875 L 39.96875 -9.328125 L 41.421875 -4.453125 C 41.535156 -5.210938 42.035156 -6.816406 42.921875 -9.265625 L 52.921875 -39.078125 L 55.8125 -39.078125 L 42.203125 0.234375 L 40.578125 0.234375 C 33.867188 -18.984375 30.394531 -28.972656 30.15625 -29.734375 C 29.800781 -30.816406 29.441406 -31.882812 29.078125 -32.9375 C 28.878906 -32.25 28.335938 -30.820312 27.453125 -28.65625 L 16.078125 0.234375 L 14.453125 0.234375 L 0.71875 -39.078125 L 3.796875 -39.078125 L 13.71875 -9.75 C 14.28125 -8.144531 14.804688 -6.359375 15.296875 -4.390625 C 15.492188 -5.191406 16.113281 -6.898438 17.15625 -9.515625 Z M 17.15625 -9.515625 "/></g></g></g><g fill="#ffffff" fill-opacity="1"><g transform="translate(377.407899, 677.40825)"><g><path d="M 9.15625 -13.546875 L 3.546875 0 L 0.71875 0 L 17.09375 -39.3125 L 18.71875 -39.3125 L 35.21875 0 L 32.15625 0 L 26.484375 -13.546875 Z M 17.765625 -34.859375 C 17.160156 -33.054688 16.617188 -31.550781 16.140625 -30.34375 L 10.109375 -15.890625 L 25.53125 -15.890625 L 19.5625 -30.28125 C 18.644531 -32.53125 18.046875 -34.054688 17.765625 -34.859375 Z M 9.390625 -42.390625 L 9.390625 -45.578125 L 12.578125 -45.578125 L 12.578125 -42.390625 Z M 22.703125 -42.390625 L 22.703125 -45.578125 L 25.890625 -45.578125 L 25.890625 -42.390625 Z M 22.703125 -42.390625 "/></g></g></g><g fill="#ffffff" fill-opacity="1"><g transform="translate(413.346785, 677.40825)"><g><path d="M 7.21875 0 L 7.21875 -39.078125 L 10 -39.078125 L 10 -2.53125 L 27.9375 -2.53125 L 27.9375 0 Z M 7.21875 0 "/></g></g></g><g fill="#ffffff" fill-opacity="1"><g transform="translate(442.242382, 677.40825)"><g><path d="M 14.203125 -36.609375 L 0.96875 -36.609375 L 0.96875 -39.078125 L 30.15625 -39.078125 L 30.15625 -36.609375 L 16.921875 -36.609375 L 16.921875 0 L 14.203125 0 Z M 14.203125 -36.609375 "/></g></g></g><g fill="#ffffff" fill-opacity="1"><g transform="translate(473.365319, 677.40825)"><g><path d="M 7.21875 0 L 7.21875 -39.078125 L 10 -39.078125 L 10 0 Z M 7.21875 0 "/></g></g></g><g fill="#ffffff" fill-opacity="1"><g transform="translate(490.582267, 677.40825)"><g><path d="M 7.21875 0 L 7.21875 -39.3125 L 8.546875 -39.3125 L 34.203125 -9.8125 C 35.117188 -8.769531 35.96875 -7.734375 36.75 -6.703125 C 37.53125 -5.679688 37.941406 -5.15625 37.984375 -5.125 C 37.910156 -6.082031 37.875 -7.96875 37.875 -10.78125 L 37.875 -39.078125 L 40.640625 -39.078125 L 40.640625 0.234375 L 39.3125 0.234375 L 13.1875 -29.734375 L 9.875 -33.78125 C 9.957031 -32.96875 10 -31.078125 10 -28.109375 L 10 0 Z M 7.21875 0 "/></g></g></g><g fill="#ffffff" fill-opacity="1"><g transform="translate(538.440585, 677.40825)"><g/></g></g><g fill="#ffffff" fill-opacity="1"><g transform="translate(560.11226, 677.40825)"><g><path d="M 7.21875 0 L 7.21875 -39.078125 L 27.265625 -39.078125 L 27.265625 -36.65625 L 10 -36.65625 L 10 -22.453125 L 25.765625 -22.453125 L 25.765625 -20.109375 L 10 -20.109375 L 10 0 Z M 7.21875 0 "/></g></g></g><g fill="#ffffff" fill-opacity="1"><g transform="translate(590.874022, 677.40825)"><g><path d="M 35.03125 -4.03125 C 32.382812 -0.9375 28.351562 0.609375 22.9375 0.609375 C 17.519531 0.609375 13.484375 -0.9375 10.828125 -4.03125 C 8.179688 -7.125 6.859375 -11.398438 6.859375 -16.859375 L 6.859375 -39.078125 L 9.625 -39.078125 L 9.625 -16.859375 C 9.625 -6.859375 14.0625 -1.859375 22.9375 -1.859375 C 31.8125 -1.859375 36.25 -6.859375 36.25 -16.859375 L 36.25 -39.078125 L 39.015625 -39.078125 L 39.015625 -16.859375 C 39.015625 -11.398438 37.6875 -7.125 35.03125 -4.03125 Z M 14.75 -42.390625 L 14.75 -45.578125 L 17.9375 -45.578125 L 17.9375 -42.390625 Z M 28.046875 -42.390625 L 28.046875 -45.578125 L 31.25 -45.578125 L 31.25 -42.390625 Z M 28.046875 -42.390625 "/></g></g></g><g fill="#ffffff" fill-opacity="1"><g transform="translate(636.745737, 677.40825)"><g><path d="M 7.21875 0 L 7.21875 -38.890625 C 10.675781 -39.171875 13.609375 -39.3125 16.015625 -39.3125 C 19.703125 -39.3125 22.75 -38.359375 25.15625 -36.453125 C 27.570312 -34.546875 28.78125 -31.828125 28.78125 -28.296875 C 28.78125 -25.929688 28.097656 -23.742188 26.734375 -21.734375 C 25.367188 -19.722656 23.820312 -18.097656 22.09375 -16.859375 C 26.875 -10.515625 29.820312 -6.722656 30.9375 -5.484375 C 33.226562 -3.109375 35.71875 -1.757812 38.40625 -1.4375 L 38.34375 0.421875 C 36.101562 0.378906 34.28125 0.0507812 32.875 -0.5625 C 31.46875 -1.1875 30.070312 -2.238281 28.6875 -3.71875 C 27.300781 -5.207031 24.257812 -9.207031 19.5625 -15.71875 C 16.3125 -15.71875 13.125 -15.816406 10 -16.015625 L 10 0 Z M 18.0625 -18 C 19.625 -18 21.304688 -19.039062 23.109375 -21.125 C 24.921875 -23.21875 25.828125 -25.644531 25.828125 -28.40625 C 25.828125 -31.175781 24.882812 -33.285156 23 -34.734375 C 21.113281 -36.179688 18.664062 -36.90625 15.65625 -36.90625 C 14.050781 -36.90625 12.164062 -36.820312 10 -36.65625 L 10 -18.296875 C 12.882812 -18.097656 15.570312 -18 18.0625 -18 Z M 18.0625 -18 "/></g></g></g><g fill="#ffffff" fill-opacity="1"><g transform="translate(673.346823, 677.40825)"><g/></g></g><g fill="#ffffff" fill-opacity="1"><g transform="translate(695.018498, 677.40825)"><g><path d="M 15.109375 -37.390625 C 12.941406 -37.390625 11.175781 -36.863281 9.8125 -35.8125 C 8.445312 -34.769531 7.765625 -33.304688 7.765625 -31.421875 C 7.765625 -29.253906 8.664062 -27.3125 10.46875 -25.59375 C 11.757812 -24.34375 13.414062 -23.023438 15.4375 -21.640625 C 17.46875 -20.253906 18.863281 -19.257812 19.625 -18.65625 C 20.382812 -18.0625 21.304688 -17.238281 22.390625 -16.1875 C 24.359375 -14.226562 25.34375 -11.960938 25.34375 -9.390625 C 25.34375 -6.054688 24.226562 -3.535156 22 -1.828125 C 19.769531 -0.128906 16.660156 0.71875 12.671875 0.71875 C 8.679688 0.71875 5.34375 -0.320312 2.65625 -2.40625 L 4.09375 -4.515625 C 6.820312 -2.671875 9.710938 -1.75 12.765625 -1.75 C 15.816406 -1.75 18.191406 -2.390625 19.890625 -3.671875 C 21.597656 -4.953125 22.453125 -6.757812 22.453125 -9.09375 C 22.453125 -11.09375 21.585938 -12.9375 19.859375 -14.625 C 18.660156 -15.832031 17.046875 -17.140625 15.015625 -18.546875 C 12.992188 -19.953125 11.582031 -20.960938 10.78125 -21.578125 C 9.976562 -22.203125 9.035156 -23.035156 7.953125 -24.078125 C 5.898438 -26.128906 4.875 -28.5 4.875 -31.1875 C 4.875 -33.875 5.828125 -35.976562 7.734375 -37.5 C 9.640625 -39.03125 12.273438 -39.796875 15.640625 -39.796875 C 19.015625 -39.796875 22.050781 -39.132812 24.75 -37.8125 L 23.71875 -35.578125 C 21.226562 -36.785156 18.359375 -37.390625 15.109375 -37.390625 Z M 15.109375 -37.390625 "/></g></g></g><g fill="#ffffff" fill-opacity="1"><g transform="translate(724.215075, 677.40825)"><g><path d="M 14.203125 -36.609375 L 0.96875 -36.609375 L 0.96875 -39.078125 L 30.15625 -39.078125 L 30.15625 -36.609375 L 16.921875 -36.609375 L 16.921875 0 L 14.203125 0 Z M 14.203125 -36.609375 "/></g></g></g><g fill="#ffffff" fill-opacity="1"><g transform="translate(755.338012, 677.40825)"><g><path d="M 7.21875 0 L 7.21875 -38.890625 C 10.675781 -39.171875 13.609375 -39.3125 16.015625 -39.3125 C 19.703125 -39.3125 22.75 -38.359375 25.15625 -36.453125 C 27.570312 -34.546875 28.78125 -31.828125 28.78125 -28.296875 C 28.78125 -25.929688 28.097656 -23.742188 26.734375 -21.734375 C 25.367188 -19.722656 23.820312 -18.097656 22.09375 -16.859375 C 26.875 -10.515625 29.820312 -6.722656 30.9375 -5.484375 C 33.226562 -3.109375 35.71875 -1.757812 38.40625 -1.4375 L 38.34375 0.421875 C 36.101562 0.378906 34.28125 0.0507812 32.875 -0.5625 C 31.46875 -1.1875 30.070312 -2.238281 28.6875 -3.71875 C 27.300781 -5.207031 24.257812 -9.207031 19.5625 -15.71875 C 16.3125 -15.71875 13.125 -15.816406 10 -16.015625 L 10 0 Z M 18.0625 -18 C 19.625 -18 21.304688 -19.039062 23.109375 -21.125 C 24.921875 -23.21875 25.828125 -25.644531 25.828125 -28.40625 C 25.828125 -31.175781 24.882812 -33.285156 23 -34.734375 C 21.113281 -36.179688 18.664062 -36.90625 15.65625 -36.90625 C 14.050781 -36.90625 12.164062 -36.820312 10 -36.65625 L 10 -18.296875 C 12.882812 -18.097656 15.570312 -18 18.0625 -18 Z M 18.0625 -18 "/></g></g></g><g fill="#ffffff" fill-opacity="1"><g transform="translate(791.939098, 677.40825)"><g><path d="M 9.15625 -13.546875 L 3.546875 0 L 0.71875 0 L 17.09375 -39.3125 L 18.71875 -39.3125 L 35.21875 0 L 32.15625 0 L 26.484375 -13.546875 Z M 17.765625 -34.859375 C 17.160156 -33.054688 16.617188 -31.550781 16.140625 -30.34375 L 10.109375 -15.890625 L 25.53125 -15.890625 L 19.5625 -30.28125 C 18.644531 -32.53125 18.046875 -34.054688 17.765625 -34.859375 Z M 17.765625 -34.859375 "/></g></g></g><g fill="#ffffff" fill-opacity="1"><g transform="translate(827.877984, 677.40825)"><g><path d="M 7.21875 0 L 7.21875 -39.078125 L 27.265625 -39.078125 L 27.265625 -36.65625 L 10 -36.65625 L 10 -22.453125 L 25.765625 -22.453125 L 25.765625 -20.109375 L 10 -20.109375 L 10 0 Z M 7.21875 0 "/></g></g></g><g fill="#ffffff" fill-opacity="1"><g transform="translate(858.6397, 677.40825)"><g><path d="M 7.21875 0 L 7.21875 -38.890625 C 10.675781 -39.171875 13.609375 -39.3125 16.015625 -39.3125 C 19.703125 -39.3125 22.75 -38.359375 25.15625 -36.453125 C 27.570312 -34.546875 28.78125 -31.828125 28.78125 -28.296875 C 28.78125 -25.929688 28.097656 -23.742188 26.734375 -21.734375 C 25.367188 -19.722656 23.820312 -18.097656 22.09375 -16.859375 C 26.875 -10.515625 29.820312 -6.722656 30.9375 -5.484375 C 33.226562 -3.109375 35.71875 -1.757812 38.40625 -1.4375 L 38.34375 0.421875 C 36.101562 0.378906 34.28125 0.0507812 32.875 -0.5625 C 31.46875 -1.1875 30.070312 -2.238281 28.6875 -3.71875 C 27.300781 -5.207031 24.257812 -9.207031 19.5625 -15.71875 C 16.3125 -15.71875 13.125 -15.816406 10 -16.015625 L 10 0 Z M 18.0625 -18 C 19.625 -18 21.304688 -19.039062 23.109375 -21.125 C 24.921875 -23.21875 25.828125 -25.644531 25.828125 -28.40625 C 25.828125 -31.175781 24.882812 -33.285156 23 -34.734375 C 21.113281 -36.179688 18.664062 -36.90625 15.65625 -36.90625 C 14.050781 -36.90625 12.164062 -36.820312 10 -36.65625 L 10 -18.296875 C 12.882812 -18.097656 15.570312 -18 18.0625 -18 Z M 18.0625 -18 "/></g></g></g><g fill="#ffffff" fill-opacity="1"><g transform="translate(895.240741, 677.40825)"><g><path d="M 7.21875 0 L 7.21875 -39.078125 L 25.46875 -39.078125 L 25.46875 -36.65625 L 10 -36.65625 L 10 -22.453125 L 23.953125 -22.453125 L 23.953125 -20.109375 L 10 -20.109375 L 10 -2.53125 L 26.0625 -2.53125 L 26.0625 0 Z M 7.21875 0 "/></g></g></g><g fill="#ffffff" fill-opacity="1"><g transform="translate(925.159714, 677.40825)"><g><path d="M 37.625 -1.921875 C 34.613281 -0.234375 30.425781 0.609375 25.0625 0.609375 C 19.707031 0.609375 14.992188 -1.316406 10.921875 -5.171875 C 6.847656 -9.023438 4.8125 -13.8125 4.8125 -19.53125 C 4.8125 -25.25 6.585938 -30.035156 10.140625 -33.890625 C 13.691406 -37.742188 18.28125 -39.671875 23.90625 -39.671875 C 28.4375 -39.671875 32.867188 -38.96875 37.203125 -37.5625 L 36.484375 -35.28125 C 32.304688 -36.5625 27.988281 -37.203125 23.53125 -37.203125 C 19.082031 -37.203125 15.34375 -35.503906 12.3125 -32.109375 C 9.28125 -28.722656 7.765625 -24.570312 7.765625 -19.65625 C 7.765625 -14.738281 9.519531 -10.550781 13.03125 -7.09375 C 16.539062 -3.644531 20.601562 -1.921875 25.21875 -1.921875 C 29.84375 -1.921875 33.675781 -2.566406 36.71875 -3.859375 Z M 37.625 -1.921875 "/></g></g></g><g fill="#ffffff" fill-opacity="1"><g transform="translate(965.432935, 677.40825)"><g><path d="M 37.140625 0 L 37.140625 -19.75 L 10 -19.75 L 10 0 L 7.21875 0 L 7.21875 -39.078125 L 10 -39.078125 L 10 -22.21875 L 37.140625 -22.21875 L 37.140625 -39.078125 L 39.921875 -39.078125 L 39.921875 0 Z M 37.140625 0 "/></g></g></g><g fill="#ffffff" fill-opacity="1"><g transform="translate(1012.568855, 677.40825)"><g><path d="M 14.203125 -36.609375 L 0.96875 -36.609375 L 0.96875 -39.078125 L 30.15625 -39.078125 L 30.15625 -36.609375 L 16.921875 -36.609375 L 16.921875 0 L 14.203125 0 Z M 14.203125 -36.609375 "/></g></g></g></svg>