<svg xmlns="http://www.w3.org/2000/svg" xmlns:xlink="http://www.w3.org/1999/xlink" width="1500" zoomAndPan="magnify" viewBox="0 0 375 374.999991" height="1500" preserveAspectRatio="xMidYMid meet" version="1.0"><defs><g/><clipPath id="732c7f6355"><path d="M 58 186.324219 L 317 186.324219 L 317 188.574219 L 58 188.574219 Z M 58 186.324219 " clip-rule="nonzero"/></clipPath></defs><g fill="#000000" fill-opacity="1"><g transform="translate(45.339985, 171.129195)"><g><path d="M 6.671875 0 L 6.671875 -36.125 L 9.09375 -36.125 L 9.09375 0 Z M 6.671875 0 "/></g></g></g><g fill="#000000" fill-opacity="1"><g transform="translate(61.102092, 171.129195)"><g><path d="M 9 -30.375 L 9.09375 -26.078125 L 9.09375 0 L 6.671875 0 L 6.671875 -36.4375 L 7.78125 -36.4375 L 31.578125 -9 C 33.191406 -7.070312 34.441406 -5.535156 35.328125 -4.390625 C 35.191406 -6.015625 35.125 -7.867188 35.125 -9.953125 L 35.125 -36.125 L 37.546875 -36.125 L 37.546875 0.296875 L 36.4375 0.296875 L 12.171875 -27.640625 C 10.492188 -29.554688 9.414062 -30.835938 8.9375 -31.484375 Z M 9 -30.375 "/></g></g></g><g fill="#000000" fill-opacity="1"><g transform="translate(105.306724, 171.129195)"><g><path d="M 8.59375 -12.53125 L 3.390625 0 L 0.8125 0 L 16.015625 -36.375 L 17.4375 -36.375 L 32.6875 0 L 29.96875 0 L 24.765625 -12.53125 Z M 16.578125 -32.34375 C 16.546875 -32.3125 16.476562 -32.109375 16.375 -31.734375 C 15.90625 -30.285156 15.445312 -29.054688 15 -28.046875 L 9.453125 -14.609375 L 23.90625 -14.609375 L 18.34375 -28 C 17.164062 -30.550781 16.578125 -32 16.578125 -32.34375 Z M 16.578125 -32.34375 "/></g></g></g><g fill="#000000" fill-opacity="1"><g transform="translate(138.80121, 171.129195)"><g/></g></g><g fill="#000000" fill-opacity="1"><g transform="translate(156.988262, 171.129195)"><g><path d="M 28.40625 -36.125 L 13.03125 -18.640625 C 15.09375 -16.179688 17.460938 -13.4375 20.140625 -10.40625 C 22.816406 -7.375 24.550781 -5.503906 25.34375 -4.796875 C 26.132812 -4.085938 26.753906 -3.554688 27.203125 -3.203125 C 27.660156 -2.847656 28.359375 -2.460938 29.296875 -2.046875 C 30.242188 -1.628906 31.257812 -1.351562 32.34375 -1.21875 L 32.296875 0.40625 C 30.265625 0.375 28.59375 0.0625 27.28125 -0.53125 C 25.96875 -1.125 24.820312 -1.898438 23.84375 -2.859375 C 22.875 -3.816406 20.742188 -6.171875 17.453125 -9.921875 C 14.171875 -13.679688 11.707031 -16.554688 10.0625 -18.546875 L 25.5625 -36.125 Z M 9.09375 -36.125 L 9.09375 0 L 6.671875 0 L 6.671875 -36.125 Z M 9.09375 -36.125 "/></g></g></g><g fill="#000000" fill-opacity="1"><g transform="translate(188.310407, 171.129195)"><g><path d="M 6.671875 0 L 6.671875 -36.125 L 9.09375 -36.125 L 9.09375 -2.21875 L 25.71875 -2.21875 L 25.71875 0 Z M 6.671875 0 "/></g></g></g><g fill="#000000" fill-opacity="1"><g transform="translate(215.136307, 171.129195)"><g><path d="M 6.671875 0 L 6.671875 -36.125 L 23.453125 -36.125 L 23.453125 -34 L 9.09375 -34 L 9.09375 -20.71875 L 22.078125 -20.71875 L 22.078125 -18.640625 L 9.09375 -18.640625 L 9.09375 -2.125 L 24 -2.125 L 24 0 Z M 6.671875 0 "/></g></g></g><g fill="#000000" fill-opacity="1"><g transform="translate(242.164297, 171.129195)"><g><path d="M 6.671875 0 L 6.671875 -35.921875 C 9.460938 -36.191406 12.175781 -36.328125 14.8125 -36.328125 C 18.34375 -36.328125 21.175781 -35.5 23.3125 -33.84375 C 25.457031 -32.195312 26.53125 -29.710938 26.53125 -26.390625 C 26.53125 -23.078125 25.070312 -20.347656 22.15625 -18.203125 C 19.238281 -16.066406 15.757812 -15 11.71875 -15 C 11.550781 -15 11.367188 -15 11.171875 -15 L 11.171875 -16.671875 C 11.304688 -16.671875 11.421875 -16.671875 11.515625 -16.671875 C 14.859375 -16.671875 17.757812 -17.546875 20.21875 -19.296875 C 22.675781 -21.054688 23.90625 -23.34375 23.90625 -26.15625 C 23.90625 -28.96875 23.046875 -31.003906 21.328125 -32.265625 C 19.609375 -33.523438 17.300781 -34.15625 14.40625 -34.15625 C 12.882812 -34.15625 11.113281 -34.085938 9.09375 -33.953125 L 9.09375 0 Z M 6.671875 0 "/></g></g></g><g fill="#000000" fill-opacity="1"><g transform="translate(271.516171, 171.129195)"><g><path d="M 28.40625 -36.125 L 13.03125 -18.640625 C 15.09375 -16.179688 17.460938 -13.4375 20.140625 -10.40625 C 22.816406 -7.375 24.550781 -5.503906 25.34375 -4.796875 C 26.132812 -4.085938 26.753906 -3.554688 27.203125 -3.203125 C 27.660156 -2.847656 28.359375 -2.460938 29.296875 -2.046875 C 30.242188 -1.628906 31.257812 -1.351562 32.34375 -1.21875 L 32.296875 0.40625 C 30.265625 0.375 28.59375 0.0625 27.28125 -0.53125 C 25.96875 -1.125 24.820312 -1.898438 23.84375 -2.859375 C 22.875 -3.816406 20.742188 -6.171875 17.453125 -9.921875 C 14.171875 -13.679688 11.707031 -16.554688 10.0625 -18.546875 L 25.5625 -36.125 Z M 9.09375 -36.125 L 9.09375 0 L 6.671875 0 L 6.671875 -36.125 Z M 9.09375 -36.125 "/></g></g></g><g fill="#000000" fill-opacity="1"><g transform="translate(302.838305, 171.129195)"><g><path d="M 6.671875 0 L 6.671875 -36.125 L 23.453125 -36.125 L 23.453125 -34 L 9.09375 -34 L 9.09375 -20.71875 L 22.078125 -20.71875 L 22.078125 -18.640625 L 9.09375 -18.640625 L 9.09375 -2.125 L 24 -2.125 L 24 0 Z M 6.671875 0 "/></g></g></g><g clip-path="url(#732c7f6355)"><path fill="#000000" d="M 187.773438 188.574219 L 58.710938 187.449219 L 187.773438 186.324219 L 316.835938 187.449219 Z M 187.773438 188.574219 " fill-opacity="1" fill-rule="nonzero"/></g><g fill="#000000" fill-opacity="1"><g transform="translate(56.702342, 216.060732)"><g><path d="M 2.15625 0 L 2.15625 -11.703125 L 8.125 -11.703125 L 8.125 -11.015625 L 2.9375 -11.015625 L 2.9375 -6.703125 L 7.6875 -6.703125 L 7.6875 -6.03125 L 2.9375 -6.03125 L 2.9375 0 Z M 2.15625 0 "/></g></g></g><g fill="#000000" fill-opacity="1"><g transform="translate(65.742624, 216.060732)"><g><path d="M 2.484375 -3.6875 L 0.96875 0 L 0.203125 0 L 4.640625 -10.6875 L 5.09375 -10.6875 L 9.5625 0 L 8.734375 0 L 7.203125 -3.6875 Z M 4.828125 -9.46875 C 4.660156 -8.976562 4.515625 -8.570312 4.390625 -8.25 L 2.75 -4.3125 L 6.9375 -4.3125 L 5.3125 -8.234375 C 5.0625 -8.835938 4.898438 -9.25 4.828125 -9.46875 Z M 4.828125 -9.46875 "/></g></g></g><g fill="#000000" fill-opacity="1"><g transform="translate(75.502202, 216.060732)"><g><path d="M 10.21875 -0.53125 C 9.40625 -0.0703125 8.269531 0.15625 6.8125 0.15625 C 5.351562 0.15625 4.070312 -0.363281 2.96875 -1.40625 C 1.863281 -2.457031 1.3125 -3.757812 1.3125 -5.3125 C 1.3125 -6.863281 1.789062 -8.160156 2.75 -9.203125 C 3.71875 -10.253906 4.96875 -10.78125 6.5 -10.78125 C 7.726562 -10.78125 8.929688 -10.585938 10.109375 -10.203125 L 9.90625 -9.59375 C 8.78125 -9.9375 7.609375 -10.109375 6.390625 -10.109375 C 5.179688 -10.109375 4.164062 -9.644531 3.34375 -8.71875 C 2.519531 -7.800781 2.109375 -6.675781 2.109375 -5.34375 C 2.109375 -4.007812 2.582031 -2.875 3.53125 -1.9375 C 4.488281 -1 5.59375 -0.53125 6.84375 -0.53125 C 8.101562 -0.53125 9.148438 -0.703125 9.984375 -1.046875 Z M 10.21875 -0.53125 "/></g></g></g><g fill="#000000" fill-opacity="1"><g transform="translate(86.438816, 216.060732)"><g><path d="M 10.09375 0 L 10.09375 -5.359375 L 2.71875 -5.359375 L 2.71875 0 L 1.96875 0 L 1.96875 -10.625 L 2.71875 -10.625 L 2.71875 -6.03125 L 10.09375 -6.03125 L 10.09375 -10.625 L 10.84375 -10.625 L 10.84375 0 Z M 10.09375 0 "/></g></g></g><g fill="#000000" fill-opacity="1"><g transform="translate(99.239066, 216.060732)"><g><path d="M 2.484375 -3.6875 L 0.96875 0 L 0.203125 0 L 4.640625 -10.6875 L 5.09375 -10.6875 L 9.5625 0 L 8.734375 0 L 7.203125 -3.6875 Z M 4.828125 -9.46875 C 4.660156 -8.976562 4.515625 -8.570312 4.390625 -8.25 L 2.75 -4.3125 L 6.9375 -4.3125 L 5.3125 -8.234375 C 5.0625 -8.835938 4.898438 -9.25 4.828125 -9.46875 Z M 4.828125 -9.46875 "/></g></g></g><g fill="#000000" fill-opacity="1"><g transform="translate(108.998644, 216.060732)"><g><path d="M 1.96875 0 L 1.96875 -10.6875 L 2.328125 -10.6875 L 9.296875 -2.671875 C 9.546875 -2.378906 9.773438 -2.09375 9.984375 -1.8125 C 10.203125 -1.539062 10.316406 -1.398438 10.328125 -1.390625 C 10.304688 -1.648438 10.296875 -2.160156 10.296875 -2.921875 L 10.296875 -10.625 L 11.046875 -10.625 L 11.046875 0.0625 L 10.6875 0.0625 L 3.578125 -8.078125 L 2.6875 -9.171875 C 2.707031 -8.953125 2.71875 -8.441406 2.71875 -7.640625 L 2.71875 0 Z M 1.96875 0 "/></g></g></g><g fill="#000000" fill-opacity="1"><g transform="translate(121.99507, 216.060732)"><g><path d="M 4.65625 -2.578125 L 7.71875 -10.40625 L 8.203125 -10.40625 L 10.859375 -2.53125 L 11.25 -1.203125 C 11.28125 -1.410156 11.421875 -1.847656 11.671875 -2.515625 L 14.375 -10.625 L 15.171875 -10.625 L 11.46875 0.0625 L 11.03125 0.0625 C 9.207031 -5.15625 8.265625 -7.867188 8.203125 -8.078125 C 8.097656 -8.367188 8 -8.660156 7.90625 -8.953125 C 7.84375 -8.765625 7.691406 -8.375 7.453125 -7.78125 L 4.375 0.0625 L 3.921875 0.0625 L 0.203125 -10.625 L 1.03125 -10.625 L 3.734375 -2.65625 C 3.878906 -2.21875 4.019531 -1.726562 4.15625 -1.1875 C 4.207031 -1.40625 4.375 -1.867188 4.65625 -2.578125 Z M 4.65625 -2.578125 "/></g></g></g><g fill="#000000" fill-opacity="1"><g transform="translate(137.345567, 216.060732)"><g><path d="M 2.484375 -3.6875 L 0.96875 0 L 0.203125 0 L 4.640625 -10.6875 L 5.09375 -10.6875 L 9.5625 0 L 8.734375 0 L 7.203125 -3.6875 Z M 4.828125 -9.46875 C 4.660156 -8.976562 4.515625 -8.570312 4.390625 -8.25 L 2.75 -4.3125 L 6.9375 -4.3125 L 5.3125 -8.234375 C 5.0625 -8.835938 4.898438 -9.25 4.828125 -9.46875 Z M 2.546875 -11.515625 L 2.546875 -12.390625 L 3.421875 -12.390625 L 3.421875 -11.515625 Z M 6.171875 -11.515625 L 6.171875 -12.390625 L 7.03125 -12.390625 L 7.03125 -11.515625 Z M 6.171875 -11.515625 "/></g></g></g><g fill="#000000" fill-opacity="1"><g transform="translate(147.105145, 216.060732)"><g><path d="M 1.96875 0 L 1.96875 -10.625 L 2.71875 -10.625 L 2.71875 -0.6875 L 7.59375 -0.6875 L 7.59375 0 Z M 1.96875 0 "/></g></g></g><g fill="#000000" fill-opacity="1"><g transform="translate(154.952049, 216.060732)"><g><path d="M 3.859375 -9.953125 L 0.265625 -9.953125 L 0.265625 -10.625 L 8.203125 -10.625 L 8.203125 -9.953125 L 4.59375 -9.953125 L 4.59375 0 L 3.859375 0 Z M 3.859375 -9.953125 "/></g></g></g><g fill="#000000" fill-opacity="1"><g transform="translate(163.403808, 216.060732)"><g><path d="M 1.96875 0 L 1.96875 -10.625 L 2.71875 -10.625 L 2.71875 0 Z M 1.96875 0 "/></g></g></g><g fill="#000000" fill-opacity="1"><g transform="translate(168.079257, 216.060732)"><g><path d="M 1.96875 0 L 1.96875 -10.6875 L 2.328125 -10.6875 L 9.296875 -2.671875 C 9.546875 -2.378906 9.773438 -2.09375 9.984375 -1.8125 C 10.203125 -1.539062 10.316406 -1.398438 10.328125 -1.390625 C 10.304688 -1.648438 10.296875 -2.160156 10.296875 -2.921875 L 10.296875 -10.625 L 11.046875 -10.625 L 11.046875 0.0625 L 10.6875 0.0625 L 3.578125 -8.078125 L 2.6875 -9.171875 C 2.707031 -8.953125 2.71875 -8.441406 2.71875 -7.640625 L 2.71875 0 Z M 1.96875 0 "/></g></g></g><g fill="#000000" fill-opacity="1"><g transform="translate(181.075682, 216.060732)"><g/></g></g><g fill="#000000" fill-opacity="1"><g transform="translate(186.960852, 216.060732)"><g><path d="M 1.96875 0 L 1.96875 -10.625 L 7.40625 -10.625 L 7.40625 -9.96875 L 2.71875 -9.96875 L 2.71875 -6.109375 L 7 -6.109375 L 7 -5.46875 L 2.71875 -5.46875 L 2.71875 0 Z M 1.96875 0 "/></g></g></g><g fill="#000000" fill-opacity="1"><g transform="translate(195.314535, 216.060732)"><g><path d="M 9.515625 -1.09375 C 8.796875 -0.257812 7.703125 0.15625 6.234375 0.15625 C 4.765625 0.15625 3.664062 -0.257812 2.9375 -1.09375 C 2.21875 -1.9375 1.859375 -3.097656 1.859375 -4.578125 L 1.859375 -10.625 L 2.625 -10.625 L 2.625 -4.578125 C 2.625 -1.859375 3.828125 -0.5 6.234375 -0.5 C 8.640625 -0.5 9.84375 -1.859375 9.84375 -4.578125 L 9.84375 -10.625 L 10.59375 -10.625 L 10.59375 -4.578125 C 10.59375 -3.097656 10.234375 -1.9375 9.515625 -1.09375 Z M 4.015625 -11.515625 L 4.015625 -12.390625 L 4.875 -12.390625 L 4.875 -11.515625 Z M 7.625 -11.515625 L 7.625 -12.390625 L 8.484375 -12.390625 L 8.484375 -11.515625 Z M 7.625 -11.515625 "/></g></g></g><g fill="#000000" fill-opacity="1"><g transform="translate(207.771485, 216.060732)"><g><path d="M 1.96875 0 L 1.96875 -10.5625 C 2.90625 -10.644531 3.703125 -10.6875 4.359375 -10.6875 C 5.359375 -10.6875 6.179688 -10.425781 6.828125 -9.90625 C 7.484375 -9.382812 7.8125 -8.644531 7.8125 -7.6875 C 7.8125 -7.039062 7.625 -6.445312 7.25 -5.90625 C 6.882812 -5.363281 6.46875 -4.921875 6 -4.578125 C 7.300781 -2.859375 8.101562 -1.828125 8.40625 -1.484375 C 9.03125 -0.847656 9.707031 -0.484375 10.4375 -0.390625 L 10.421875 0.109375 C 9.804688 0.0976562 9.304688 0.0078125 8.921875 -0.15625 C 8.546875 -0.320312 8.171875 -0.609375 7.796875 -1.015625 C 7.421875 -1.421875 6.59375 -2.503906 5.3125 -4.265625 C 4.425781 -4.265625 3.5625 -4.296875 2.71875 -4.359375 L 2.71875 0 Z M 4.90625 -4.890625 C 5.332031 -4.890625 5.789062 -5.171875 6.28125 -5.734375 C 6.769531 -6.304688 7.015625 -6.96875 7.015625 -7.71875 C 7.015625 -8.46875 6.757812 -9.039062 6.25 -9.4375 C 5.738281 -9.832031 5.070312 -10.03125 4.25 -10.03125 C 3.8125 -10.03125 3.300781 -10.007812 2.71875 -9.96875 L 2.71875 -4.96875 C 3.5 -4.914062 4.226562 -4.890625 4.90625 -4.890625 Z M 4.90625 -4.890625 "/></g></g></g><g fill="#000000" fill-opacity="1"><g transform="translate(217.710895, 216.060732)"><g/></g></g><g fill="#000000" fill-opacity="1"><g transform="translate(223.596065, 216.060732)"><g><path d="M 4.109375 -10.15625 C 3.515625 -10.15625 3.03125 -10.015625 2.65625 -9.734375 C 2.289062 -9.453125 2.109375 -9.054688 2.109375 -8.546875 C 2.109375 -7.953125 2.351562 -7.421875 2.84375 -6.953125 C 3.195312 -6.617188 3.644531 -6.257812 4.1875 -5.875 C 4.738281 -5.5 5.117188 -5.226562 5.328125 -5.0625 C 5.535156 -4.90625 5.785156 -4.6875 6.078125 -4.40625 C 6.617188 -3.863281 6.890625 -3.242188 6.890625 -2.546875 C 6.890625 -1.640625 6.585938 -0.953125 5.984375 -0.484375 C 5.378906 -0.0234375 4.53125 0.203125 3.4375 0.203125 C 2.351562 0.203125 1.445312 -0.0820312 0.71875 -0.65625 L 1.109375 -1.234375 C 1.847656 -0.722656 2.632812 -0.46875 3.46875 -0.46875 C 4.300781 -0.46875 4.945312 -0.640625 5.40625 -0.984375 C 5.875 -1.335938 6.109375 -1.832031 6.109375 -2.46875 C 6.109375 -3.007812 5.875 -3.507812 5.40625 -3.96875 C 5.070312 -4.300781 4.628906 -4.65625 4.078125 -5.03125 C 3.523438 -5.414062 3.140625 -5.691406 2.921875 -5.859375 C 2.703125 -6.035156 2.445312 -6.265625 2.15625 -6.546875 C 1.601562 -7.097656 1.328125 -7.738281 1.328125 -8.46875 C 1.328125 -9.195312 1.582031 -9.769531 2.09375 -10.1875 C 2.613281 -10.601562 3.332031 -10.8125 4.25 -10.8125 C 5.164062 -10.8125 5.988281 -10.632812 6.71875 -10.28125 L 6.453125 -9.671875 C 5.773438 -9.992188 4.992188 -10.15625 4.109375 -10.15625 Z M 4.109375 -10.15625 "/></g></g></g><g fill="#000000" fill-opacity="1"><g transform="translate(231.524703, 216.060732)"><g><path d="M 3.859375 -9.953125 L 0.265625 -9.953125 L 0.265625 -10.625 L 8.203125 -10.625 L 8.203125 -9.953125 L 4.59375 -9.953125 L 4.59375 0 L 3.859375 0 Z M 3.859375 -9.953125 "/></g></g></g><g fill="#000000" fill-opacity="1"><g transform="translate(239.976462, 216.060732)"><g><path d="M 1.96875 0 L 1.96875 -10.5625 C 2.90625 -10.644531 3.703125 -10.6875 4.359375 -10.6875 C 5.359375 -10.6875 6.179688 -10.425781 6.828125 -9.90625 C 7.484375 -9.382812 7.8125 -8.644531 7.8125 -7.6875 C 7.8125 -7.039062 7.625 -6.445312 7.25 -5.90625 C 6.882812 -5.363281 6.46875 -4.921875 6 -4.578125 C 7.300781 -2.859375 8.101562 -1.828125 8.40625 -1.484375 C 9.03125 -0.847656 9.707031 -0.484375 10.4375 -0.390625 L 10.421875 0.109375 C 9.804688 0.0976562 9.304688 0.0078125 8.921875 -0.15625 C 8.546875 -0.320312 8.171875 -0.609375 7.796875 -1.015625 C 7.421875 -1.421875 6.59375 -2.503906 5.3125 -4.265625 C 4.425781 -4.265625 3.5625 -4.296875 2.71875 -4.359375 L 2.71875 0 Z M 4.90625 -4.890625 C 5.332031 -4.890625 5.789062 -5.171875 6.28125 -5.734375 C 6.769531 -6.304688 7.015625 -6.96875 7.015625 -7.71875 C 7.015625 -8.46875 6.757812 -9.039062 6.25 -9.4375 C 5.738281 -9.832031 5.070312 -10.03125 4.25 -10.03125 C 3.8125 -10.03125 3.300781 -10.007812 2.71875 -9.96875 L 2.71875 -4.96875 C 3.5 -4.914062 4.226562 -4.890625 4.90625 -4.890625 Z M 4.90625 -4.890625 "/></g></g></g><g fill="#000000" fill-opacity="1"><g transform="translate(249.915861, 216.060732)"><g><path d="M 2.484375 -3.6875 L 0.96875 0 L 0.203125 0 L 4.640625 -10.6875 L 5.09375 -10.6875 L 9.5625 0 L 8.734375 0 L 7.203125 -3.6875 Z M 4.828125 -9.46875 C 4.660156 -8.976562 4.515625 -8.570312 4.390625 -8.25 L 2.75 -4.3125 L 6.9375 -4.3125 L 5.3125 -8.234375 C 5.0625 -8.835938 4.898438 -9.25 4.828125 -9.46875 Z M 4.828125 -9.46875 "/></g></g></g><g fill="#000000" fill-opacity="1"><g transform="translate(259.675427, 216.060732)"><g><path d="M 1.96875 0 L 1.96875 -10.625 L 7.40625 -10.625 L 7.40625 -9.96875 L 2.71875 -9.96875 L 2.71875 -6.109375 L 7 -6.109375 L 7 -5.46875 L 2.71875 -5.46875 L 2.71875 0 Z M 1.96875 0 "/></g></g></g><g fill="#000000" fill-opacity="1"><g transform="translate(268.02911, 216.060732)"><g><path d="M 1.96875 0 L 1.96875 -10.5625 C 2.90625 -10.644531 3.703125 -10.6875 4.359375 -10.6875 C 5.359375 -10.6875 6.179688 -10.425781 6.828125 -9.90625 C 7.484375 -9.382812 7.8125 -8.644531 7.8125 -7.6875 C 7.8125 -7.039062 7.625 -6.445312 7.25 -5.90625 C 6.882812 -5.363281 6.46875 -4.921875 6 -4.578125 C 7.300781 -2.859375 8.101562 -1.828125 8.40625 -1.484375 C 9.03125 -0.847656 9.707031 -0.484375 10.4375 -0.390625 L 10.421875 0.109375 C 9.804688 0.0976562 9.304688 0.0078125 8.921875 -0.15625 C 8.546875 -0.320312 8.171875 -0.609375 7.796875 -1.015625 C 7.421875 -1.421875 6.59375 -2.503906 5.3125 -4.265625 C 4.425781 -4.265625 3.5625 -4.296875 2.71875 -4.359375 L 2.71875 0 Z M 4.90625 -4.890625 C 5.332031 -4.890625 5.789062 -5.171875 6.28125 -5.734375 C 6.769531 -6.304688 7.015625 -6.96875 7.015625 -7.71875 C 7.015625 -8.46875 6.757812 -9.039062 6.25 -9.4375 C 5.738281 -9.832031 5.070312 -10.03125 4.25 -10.03125 C 3.8125 -10.03125 3.300781 -10.007812 2.71875 -9.96875 L 2.71875 -4.96875 C 3.5 -4.914062 4.226562 -4.890625 4.90625 -4.890625 Z M 4.90625 -4.890625 "/></g></g></g><g fill="#000000" fill-opacity="1"><g transform="translate(277.968532, 216.060732)"><g><path d="M 1.96875 0 L 1.96875 -10.625 L 6.921875 -10.625 L 6.921875 -9.96875 L 2.71875 -9.96875 L 2.71875 -6.109375 L 6.515625 -6.109375 L 6.515625 -5.46875 L 2.71875 -5.46875 L 2.71875 -0.6875 L 7.078125 -0.6875 L 7.078125 0 Z M 1.96875 0 "/></g></g></g><g fill="#000000" fill-opacity="1"><g transform="translate(286.093333, 216.060732)"><g><path d="M 10.21875 -0.53125 C 9.40625 -0.0703125 8.269531 0.15625 6.8125 0.15625 C 5.351562 0.15625 4.070312 -0.363281 2.96875 -1.40625 C 1.863281 -2.457031 1.3125 -3.757812 1.3125 -5.3125 C 1.3125 -6.863281 1.789062 -8.160156 2.75 -9.203125 C 3.71875 -10.253906 4.96875 -10.78125 6.5 -10.78125 C 7.726562 -10.78125 8.929688 -10.585938 10.109375 -10.203125 L 9.90625 -9.59375 C 8.78125 -9.9375 7.609375 -10.109375 6.390625 -10.109375 C 5.179688 -10.109375 4.164062 -9.644531 3.34375 -8.71875 C 2.519531 -7.800781 2.109375 -6.675781 2.109375 -5.34375 C 2.109375 -4.007812 2.582031 -2.875 3.53125 -1.9375 C 4.488281 -1 5.59375 -0.53125 6.84375 -0.53125 C 8.101562 -0.53125 9.148438 -0.703125 9.984375 -1.046875 Z M 10.21875 -0.53125 "/></g></g></g><g fill="#000000" fill-opacity="1"><g transform="translate(297.029948, 216.060732)"><g><path d="M 10.09375 0 L 10.09375 -5.359375 L 2.71875 -5.359375 L 2.71875 0 L 1.96875 0 L 1.96875 -10.625 L 2.71875 -10.625 L 2.71875 -6.03125 L 10.09375 -6.03125 L 10.09375 -10.625 L 10.84375 -10.625 L 10.84375 0 Z M 10.09375 0 "/></g></g></g><g fill="#000000" fill-opacity="1"><g transform="translate(309.83021, 216.060732)"><g><path d="M 3.859375 -9.953125 L 0.265625 -9.953125 L 0.265625 -10.625 L 8.203125 -10.625 L 8.203125 -9.953125 L 4.59375 -9.953125 L 4.59375 0 L 3.859375 0 Z M 3.859375 -9.953125 "/></g></g></g></svg>