<svg xmlns="http://www.w3.org/2000/svg" xmlns:xlink="http://www.w3.org/1999/xlink" width="1500" zoomAndPan="magnify" viewBox="0 0 1125 1124.99995" height="1500" preserveAspectRatio="xMidYMid meet" version="1.0"><defs><g/><clipPath id="26408d6adb"><path d="M 88 568.695312 L 1037 568.695312 L 1037 577.695312 L 88 577.695312 Z M 88 568.695312 " clip-rule="nonzero"/></clipPath></defs><g fill="#000000" fill-opacity="1"><g transform="translate(38.863626, 512.766892)"><g><path d="M 24.546875 0 L 24.546875 -132.96875 L 33.46875 -132.96875 L 33.46875 0 Z M 24.546875 0 "/></g></g></g><g fill="#000000" fill-opacity="1"><g transform="translate(96.875553, 512.766892)"><g><path d="M 33.109375 -111.765625 L 33.46875 -95.953125 L 33.46875 0 L 24.546875 0 L 24.546875 -134.078125 L 28.640625 -134.078125 L 116.234375 -33.109375 C 122.179688 -26.035156 126.765625 -20.390625 129.984375 -16.171875 C 129.492188 -22.128906 129.25 -28.953125 129.25 -36.640625 L 129.25 -132.96875 L 138.171875 -132.96875 L 138.171875 1.109375 L 134.078125 1.109375 L 44.8125 -101.71875 C 38.613281 -108.789062 34.648438 -113.503906 32.921875 -115.859375 Z M 33.109375 -111.765625 "/></g></g></g><g fill="#000000" fill-opacity="1"><g transform="translate(259.569278, 512.766892)"><g><path d="M 31.609375 -46.125 L 12.453125 0 L 2.96875 0 L 58.953125 -133.890625 L 64.15625 -133.890625 L 120.328125 0 L 110.28125 0 L 91.125 -46.125 Z M 61 -119.015625 C 60.875 -118.890625 60.625 -118.144531 60.25 -116.78125 C 58.519531 -111.457031 56.847656 -106.9375 55.234375 -103.21875 L 34.78125 -53.75 L 87.96875 -53.75 L 67.5 -103.03125 C 63.164062 -112.445312 61 -117.773438 61 -119.015625 Z M 61 -119.015625 "/></g></g></g><g fill="#000000" fill-opacity="1"><g transform="translate(382.844653, 512.766892)"><g/></g></g><g fill="#000000" fill-opacity="1"><g transform="translate(449.781513, 512.766892)"><g><path d="M 104.515625 -132.96875 L 47.984375 -68.625 C 55.546875 -59.570312 64.253906 -49.46875 74.109375 -38.3125 C 83.960938 -27.15625 90.347656 -20.273438 93.265625 -17.671875 C 96.179688 -15.066406 98.472656 -13.113281 100.140625 -11.8125 C 101.816406 -10.507812 104.390625 -9.082031 107.859375 -7.53125 C 111.328125 -5.976562 115.046875 -4.957031 119.015625 -4.46875 L 118.828125 1.484375 C 111.390625 1.359375 105.253906 0.210938 100.421875 -1.953125 C 95.585938 -4.117188 91.375 -6.96875 87.78125 -10.5 C 84.1875 -14.039062 76.34375 -22.722656 64.25 -36.546875 C 52.164062 -50.367188 43.082031 -60.9375 37 -68.25 L 94.09375 -132.96875 Z M 33.46875 -132.96875 L 33.46875 0 L 24.546875 0 L 24.546875 -132.96875 Z M 33.46875 -132.96875 "/></g></g></g><g fill="#000000" fill-opacity="1"><g transform="translate(565.061659, 512.766892)"><g><path d="M 24.546875 0 L 24.546875 -132.96875 L 33.46875 -132.96875 L 33.46875 -8.1875 L 94.65625 -8.1875 L 94.65625 0 Z M 24.546875 0 "/></g></g></g><g fill="#000000" fill-opacity="1"><g transform="translate(663.793517, 512.766892)"><g><path d="M 24.546875 0 L 24.546875 -132.96875 L 86.296875 -132.96875 L 86.296875 -125.15625 L 33.46875 -125.15625 L 33.46875 -76.25 L 81.265625 -76.25 L 81.265625 -68.625 L 33.46875 -68.625 L 33.46875 -7.8125 L 88.328125 -7.8125 L 88.328125 0 Z M 24.546875 0 "/></g></g></g><g fill="#000000" fill-opacity="1"><g transform="translate(763.269164, 512.766892)"><g><path d="M 24.546875 0 L 24.546875 -132.21875 C 34.835938 -133.21875 44.816406 -133.71875 54.484375 -133.71875 C 67.503906 -133.71875 77.953125 -130.675781 85.828125 -124.59375 C 93.703125 -118.519531 97.640625 -109.375 97.640625 -97.15625 C 97.640625 -84.945312 92.273438 -74.90625 81.546875 -67.03125 C 70.828125 -59.164062 58.023438 -55.234375 43.140625 -55.234375 C 42.523438 -55.234375 41.84375 -55.234375 41.09375 -55.234375 L 41.09375 -61.375 C 41.59375 -61.375 42.03125 -61.375 42.40625 -61.375 C 54.675781 -61.375 65.335938 -64.59375 74.390625 -71.03125 C 83.441406 -77.476562 87.96875 -85.878906 87.96875 -96.234375 C 87.96875 -106.585938 84.804688 -114.085938 78.484375 -118.734375 C 72.160156 -123.390625 63.664062 -125.71875 53 -125.71875 C 47.414062 -125.71875 40.90625 -125.46875 33.46875 -124.96875 L 33.46875 0 Z M 24.546875 0 "/></g></g></g><g fill="#000000" fill-opacity="1"><g transform="translate(871.297789, 512.766892)"><g><path d="M 104.515625 -132.96875 L 47.984375 -68.625 C 55.546875 -59.570312 64.253906 -49.46875 74.109375 -38.3125 C 83.960938 -27.15625 90.347656 -20.273438 93.265625 -17.671875 C 96.179688 -15.066406 98.472656 -13.113281 100.140625 -11.8125 C 101.816406 -10.507812 104.390625 -9.082031 107.859375 -7.53125 C 111.328125 -5.976562 115.046875 -4.957031 119.015625 -4.46875 L 118.828125 1.484375 C 111.390625 1.359375 105.253906 0.210938 100.421875 -1.953125 C 95.585938 -4.117188 91.375 -6.96875 87.78125 -10.5 C 84.1875 -14.039062 76.34375 -22.722656 64.25 -36.546875 C 52.164062 -50.367188 43.082031 -60.9375 37 -68.25 L 94.09375 -132.96875 Z M 33.46875 -132.96875 L 33.46875 0 L 24.546875 0 L 24.546875 -132.96875 Z M 33.46875 -132.96875 "/></g></g></g><g fill="#000000" fill-opacity="1"><g transform="translate(986.577893, 512.766892)"><g><path d="M 24.546875 0 L 24.546875 -132.96875 L 86.296875 -132.96875 L 86.296875 -125.15625 L 33.46875 -125.15625 L 33.46875 -76.25 L 81.265625 -76.25 L 81.265625 -68.625 L 33.46875 -68.625 L 33.46875 -7.8125 L 88.328125 -7.8125 L 88.328125 0 Z M 24.546875 0 "/></g></g></g><g clip-path="url(#26408d6adb)"><path fill="#000000" d="M 562.484375 577.695312 L 88.121094 573.195312 L 562.484375 568.695312 L 1036.847656 573.195312 Z M 562.484375 577.695312 " fill-opacity="1" fill-rule="nonzero"/></g><g fill="#000000" fill-opacity="1"><g transform="translate(80.682406, 678.135969)"><g><path d="M 7.953125 0 L 7.953125 -43.046875 L 29.921875 -43.046875 L 29.921875 -40.515625 L 10.84375 -40.515625 L 10.84375 -24.6875 L 28.296875 -24.6875 L 28.296875 -22.21875 L 10.84375 -22.21875 L 10.84375 0 Z M 7.953125 0 "/></g></g></g><g fill="#000000" fill-opacity="1"><g transform="translate(113.954875, 678.135969)"><g><path d="M 9.15625 -13.546875 L 3.546875 0 L 0.71875 0 L 17.09375 -39.3125 L 18.71875 -39.3125 L 35.21875 0 L 32.15625 0 L 26.484375 -13.546875 Z M 17.765625 -34.859375 C 17.160156 -33.054688 16.617188 -31.550781 16.140625 -30.34375 L 10.109375 -15.890625 L 25.53125 -15.890625 L 19.5625 -30.28125 C 18.644531 -32.53125 18.046875 -34.054688 17.765625 -34.859375 Z M 17.765625 -34.859375 "/></g></g></g><g fill="#000000" fill-opacity="1"><g transform="translate(149.874687, 678.135969)"><g><path d="M 37.625 -1.921875 C 34.613281 -0.234375 30.425781 0.609375 25.0625 0.609375 C 19.707031 0.609375 14.992188 -1.316406 10.921875 -5.171875 C 6.847656 -9.023438 4.8125 -13.8125 4.8125 -19.53125 C 4.8125 -25.25 6.585938 -30.035156 10.140625 -33.890625 C 13.691406 -37.742188 18.28125 -39.671875 23.90625 -39.671875 C 28.4375 -39.671875 32.867188 -38.96875 37.203125 -37.5625 L 36.484375 -35.28125 C 32.304688 -36.5625 27.988281 -37.203125 23.53125 -37.203125 C 19.082031 -37.203125 15.34375 -35.503906 12.3125 -32.109375 C 9.28125 -28.722656 7.765625 -24.570312 7.765625 -19.65625 C 7.765625 -14.738281 9.519531 -10.550781 13.03125 -7.09375 C 16.539062 -3.644531 20.601562 -1.921875 25.21875 -1.921875 C 29.84375 -1.921875 33.675781 -2.566406 36.71875 -3.859375 Z M 37.625 -1.921875 "/></g></g></g><g fill="#000000" fill-opacity="1"><g transform="translate(190.126543, 678.135969)"><g><path d="M 37.140625 0 L 37.140625 -19.75 L 10 -19.75 L 10 0 L 7.21875 0 L 7.21875 -39.078125 L 10 -39.078125 L 10 -22.21875 L 37.140625 -22.21875 L 37.140625 -39.078125 L 39.921875 -39.078125 L 39.921875 0 Z M 37.140625 0 "/></g></g></g><g fill="#000000" fill-opacity="1"><g transform="translate(237.237451, 678.135969)"><g><path d="M 9.15625 -13.546875 L 3.546875 0 L 0.71875 0 L 17.09375 -39.3125 L 18.71875 -39.3125 L 35.21875 0 L 32.15625 0 L 26.484375 -13.546875 Z M 17.765625 -34.859375 C 17.160156 -33.054688 16.617188 -31.550781 16.140625 -30.34375 L 10.109375 -15.890625 L 25.53125 -15.890625 L 19.5625 -30.28125 C 18.644531 -32.53125 18.046875 -34.054688 17.765625 -34.859375 Z M 17.765625 -34.859375 "/></g></g></g><g fill="#000000" fill-opacity="1"><g transform="translate(273.157263, 678.135969)"><g><path d="M 7.21875 0 L 7.21875 -39.3125 L 8.546875 -39.3125 L 34.203125 -9.8125 C 35.117188 -8.769531 35.96875 -7.734375 36.75 -6.703125 C 37.53125 -5.679688 37.941406 -5.15625 37.984375 -5.125 C 37.910156 -6.082031 37.875 -7.96875 37.875 -10.78125 L 37.875 -39.078125 L 40.640625 -39.078125 L 40.640625 0.234375 L 39.3125 0.234375 L 13.1875 -29.734375 L 9.875 -33.78125 C 9.957031 -32.96875 10 -31.078125 10 -28.109375 L 10 0 Z M 7.21875 0 "/></g></g></g><g fill="#000000" fill-opacity="1"><g transform="translate(320.990187, 678.135969)"><g><path d="M 17.15625 -9.515625 L 28.421875 -38.296875 L 30.15625 -38.296875 L 39.96875 -9.328125 L 41.421875 -4.453125 C 41.535156 -5.210938 42.035156 -6.816406 42.921875 -9.265625 L 52.921875 -39.078125 L 55.8125 -39.078125 L 42.203125 0.234375 L 40.578125 0.234375 C 33.867188 -18.984375 30.394531 -28.972656 30.15625 -29.734375 C 29.800781 -30.816406 29.441406 -31.882812 29.078125 -32.9375 C 28.878906 -32.25 28.335938 -30.820312 27.453125 -28.65625 L 16.078125 0.234375 L 14.453125 0.234375 L 0.71875 -39.078125 L 3.796875 -39.078125 L 13.71875 -9.75 C 14.28125 -8.144531 14.804688 -6.359375 15.296875 -4.390625 C 15.492188 -5.191406 16.113281 -6.898438 17.15625 -9.515625 Z M 17.15625 -9.515625 "/></g></g></g><g fill="#000000" fill-opacity="1"><g transform="translate(377.487197, 678.135969)"><g><path d="M 9.15625 -13.546875 L 3.546875 0 L 0.71875 0 L 17.09375 -39.3125 L 18.71875 -39.3125 L 35.21875 0 L 32.15625 0 L 26.484375 -13.546875 Z M 17.765625 -34.859375 C 17.160156 -33.054688 16.617188 -31.550781 16.140625 -30.34375 L 10.109375 -15.890625 L 25.53125 -15.890625 L 19.5625 -30.28125 C 18.644531 -32.53125 18.046875 -34.054688 17.765625 -34.859375 Z M 9.390625 -42.390625 L 9.390625 -45.578125 L 12.578125 -45.578125 L 12.578125 -42.390625 Z M 22.703125 -42.390625 L 22.703125 -45.578125 L 25.890625 -45.578125 L 25.890625 -42.390625 Z M 22.703125 -42.390625 "/></g></g></g><g fill="#000000" fill-opacity="1"><g transform="translate(413.407009, 678.135969)"><g><path d="M 7.21875 0 L 7.21875 -39.078125 L 10 -39.078125 L 10 -2.53125 L 27.9375 -2.53125 L 27.9375 0 Z M 7.21875 0 "/></g></g></g><g fill="#000000" fill-opacity="1"><g transform="translate(442.287288, 678.135969)"><g><path d="M 14.203125 -36.609375 L 0.96875 -36.609375 L 0.96875 -39.078125 L 30.15625 -39.078125 L 30.15625 -36.609375 L 16.921875 -36.609375 L 16.921875 0 L 14.203125 0 Z M 14.203125 -36.609375 "/></g></g></g><g fill="#000000" fill-opacity="1"><g transform="translate(473.393714, 678.135969)"><g><path d="M 7.21875 0 L 7.21875 -39.078125 L 10 -39.078125 L 10 0 Z M 7.21875 0 "/></g></g></g><g fill="#000000" fill-opacity="1"><g transform="translate(490.601553, 678.135969)"><g><path d="M 7.21875 0 L 7.21875 -39.3125 L 8.546875 -39.3125 L 34.203125 -9.8125 C 35.117188 -8.769531 35.96875 -7.734375 36.75 -6.703125 C 37.53125 -5.679688 37.941406 -5.15625 37.984375 -5.125 C 37.910156 -6.082031 37.875 -7.96875 37.875 -10.78125 L 37.875 -39.078125 L 40.640625 -39.078125 L 40.640625 0.234375 L 39.3125 0.234375 L 13.1875 -29.734375 L 9.875 -33.78125 C 9.957031 -32.96875 10 -31.078125 10 -28.109375 L 10 0 Z M 7.21875 0 "/></g></g></g><g fill="#000000" fill-opacity="1"><g transform="translate(538.434477, 678.135969)"><g/></g></g><g fill="#000000" fill-opacity="1"><g transform="translate(560.094654, 678.135969)"><g><path d="M 7.21875 0 L 7.21875 -39.078125 L 27.265625 -39.078125 L 27.265625 -36.65625 L 10 -36.65625 L 10 -22.453125 L 25.765625 -22.453125 L 25.765625 -20.109375 L 10 -20.109375 L 10 0 Z M 7.21875 0 "/></g></g></g><g fill="#000000" fill-opacity="1"><g transform="translate(590.840115, 678.135969)"><g><path d="M 35.03125 -4.03125 C 32.382812 -0.9375 28.351562 0.609375 22.9375 0.609375 C 17.519531 0.609375 13.484375 -0.9375 10.828125 -4.03125 C 8.179688 -7.125 6.859375 -11.398438 6.859375 -16.859375 L 6.859375 -39.078125 L 9.625 -39.078125 L 9.625 -16.859375 C 9.625 -6.859375 14.0625 -1.859375 22.9375 -1.859375 C 31.8125 -1.859375 36.25 -6.859375 36.25 -16.859375 L 36.25 -39.078125 L 39.015625 -39.078125 L 39.015625 -16.859375 C 39.015625 -11.398438 37.6875 -7.125 35.03125 -4.03125 Z M 14.75 -42.390625 L 14.75 -45.578125 L 17.9375 -45.578125 L 17.9375 -42.390625 Z M 28.046875 -42.390625 L 28.046875 -45.578125 L 31.25 -45.578125 L 31.25 -42.390625 Z M 28.046875 -42.390625 "/></g></g></g><g fill="#000000" fill-opacity="1"><g transform="translate(636.687519, 678.135969)"><g><path d="M 7.21875 0 L 7.21875 -38.890625 C 10.675781 -39.171875 13.609375 -39.3125 16.015625 -39.3125 C 19.703125 -39.3125 22.75 -38.359375 25.15625 -36.453125 C 27.570312 -34.546875 28.78125 -31.828125 28.78125 -28.296875 C 28.78125 -25.929688 28.097656 -23.742188 26.734375 -21.734375 C 25.367188 -19.722656 23.820312 -18.097656 22.09375 -16.859375 C 26.875 -10.515625 29.820312 -6.722656 30.9375 -5.484375 C 33.226562 -3.109375 35.71875 -1.757812 38.40625 -1.4375 L 38.34375 0.421875 C 36.101562 0.378906 34.28125 0.0507812 32.875 -0.5625 C 31.46875 -1.1875 30.070312 -2.238281 28.6875 -3.71875 C 27.300781 -5.207031 24.257812 -9.207031 19.5625 -15.71875 C 16.3125 -15.71875 13.125 -15.816406 10 -16.015625 L 10 0 Z M 18.0625 -18 C 19.625 -18 21.304688 -19.039062 23.109375 -21.125 C 24.921875 -23.21875 25.828125 -25.644531 25.828125 -28.40625 C 25.828125 -31.175781 24.882812 -33.285156 23 -34.734375 C 21.113281 -36.179688 18.664062 -36.90625 15.65625 -36.90625 C 14.050781 -36.90625 12.164062 -36.820312 10 -36.65625 L 10 -18.296875 C 12.882812 -18.097656 15.570312 -18 18.0625 -18 Z M 18.0625 -18 "/></g></g></g><g fill="#000000" fill-opacity="1"><g transform="translate(673.269199, 678.135969)"><g/></g></g><g fill="#000000" fill-opacity="1"><g transform="translate(694.929376, 678.135969)"><g><path d="M 15.109375 -37.390625 C 12.941406 -37.390625 11.175781 -36.863281 9.8125 -35.8125 C 8.445312 -34.769531 7.765625 -33.304688 7.765625 -31.421875 C 7.765625 -29.253906 8.664062 -27.3125 10.46875 -25.59375 C 11.757812 -24.34375 13.414062 -23.023438 15.4375 -21.640625 C 17.46875 -20.253906 18.863281 -19.257812 19.625 -18.65625 C 20.382812 -18.0625 21.304688 -17.238281 22.390625 -16.1875 C 24.359375 -14.226562 25.34375 -11.960938 25.34375 -9.390625 C 25.34375 -6.054688 24.226562 -3.535156 22 -1.828125 C 19.769531 -0.128906 16.660156 0.71875 12.671875 0.71875 C 8.679688 0.71875 5.34375 -0.320312 2.65625 -2.40625 L 4.09375 -4.515625 C 6.820312 -2.671875 9.710938 -1.75 12.765625 -1.75 C 15.816406 -1.75 18.191406 -2.390625 19.890625 -3.671875 C 21.597656 -4.953125 22.453125 -6.757812 22.453125 -9.09375 C 22.453125 -11.09375 21.585938 -12.9375 19.859375 -14.625 C 18.660156 -15.832031 17.046875 -17.140625 15.015625 -18.546875 C 12.992188 -19.953125 11.582031 -20.960938 10.78125 -21.578125 C 9.976562 -22.203125 9.035156 -23.035156 7.953125 -24.078125 C 5.898438 -26.128906 4.875 -28.5 4.875 -31.1875 C 4.875 -33.875 5.828125 -35.976562 7.734375 -37.5 C 9.640625 -39.03125 12.273438 -39.796875 15.640625 -39.796875 C 19.015625 -39.796875 22.050781 -39.132812 24.75 -37.8125 L 23.71875 -35.578125 C 21.226562 -36.785156 18.359375 -37.390625 15.109375 -37.390625 Z M 15.109375 -37.390625 "/></g></g></g><g fill="#000000" fill-opacity="1"><g transform="translate(724.110472, 678.135969)"><g><path d="M 14.203125 -36.609375 L 0.96875 -36.609375 L 0.96875 -39.078125 L 30.15625 -39.078125 L 30.15625 -36.609375 L 16.921875 -36.609375 L 16.921875 0 L 14.203125 0 Z M 14.203125 -36.609375 "/></g></g></g><g fill="#000000" fill-opacity="1"><g transform="translate(755.216898, 678.135969)"><g><path d="M 7.21875 0 L 7.21875 -38.890625 C 10.675781 -39.171875 13.609375 -39.3125 16.015625 -39.3125 C 19.703125 -39.3125 22.75 -38.359375 25.15625 -36.453125 C 27.570312 -34.546875 28.78125 -31.828125 28.78125 -28.296875 C 28.78125 -25.929688 28.097656 -23.742188 26.734375 -21.734375 C 25.367188 -19.722656 23.820312 -18.097656 22.09375 -16.859375 C 26.875 -10.515625 29.820312 -6.722656 30.9375 -5.484375 C 33.226562 -3.109375 35.71875 -1.757812 38.40625 -1.4375 L 38.34375 0.421875 C 36.101562 0.378906 34.28125 0.0507812 32.875 -0.5625 C 31.46875 -1.1875 30.070312 -2.238281 28.6875 -3.71875 C 27.300781 -5.207031 24.257812 -9.207031 19.5625 -15.71875 C 16.3125 -15.71875 13.125 -15.816406 10 -16.015625 L 10 0 Z M 18.0625 -18 C 19.625 -18 21.304688 -19.039062 23.109375 -21.125 C 24.921875 -23.21875 25.828125 -25.644531 25.828125 -28.40625 C 25.828125 -31.175781 24.882812 -33.285156 23 -34.734375 C 21.113281 -36.179688 18.664062 -36.90625 15.65625 -36.90625 C 14.050781 -36.90625 12.164062 -36.820312 10 -36.65625 L 10 -18.296875 C 12.882812 -18.097656 15.570312 -18 18.0625 -18 Z M 18.0625 -18 "/></g></g></g><g fill="#000000" fill-opacity="1"><g transform="translate(791.798536, 678.135969)"><g><path d="M 9.15625 -13.546875 L 3.546875 0 L 0.71875 0 L 17.09375 -39.3125 L 18.71875 -39.3125 L 35.21875 0 L 32.15625 0 L 26.484375 -13.546875 Z M 17.765625 -34.859375 C 17.160156 -33.054688 16.617188 -31.550781 16.140625 -30.34375 L 10.109375 -15.890625 L 25.53125 -15.890625 L 19.5625 -30.28125 C 18.644531 -32.53125 18.046875 -34.054688 17.765625 -34.859375 Z M 17.765625 -34.859375 "/></g></g></g><g fill="#000000" fill-opacity="1"><g transform="translate(827.718306, 678.135969)"><g><path d="M 7.21875 0 L 7.21875 -39.078125 L 27.265625 -39.078125 L 27.265625 -36.65625 L 10 -36.65625 L 10 -22.453125 L 25.765625 -22.453125 L 25.765625 -20.109375 L 10 -20.109375 L 10 0 Z M 7.21875 0 "/></g></g></g><g fill="#000000" fill-opacity="1"><g transform="translate(858.463767, 678.135969)"><g><path d="M 7.21875 0 L 7.21875 -38.890625 C 10.675781 -39.171875 13.609375 -39.3125 16.015625 -39.3125 C 19.703125 -39.3125 22.75 -38.359375 25.15625 -36.453125 C 27.570312 -34.546875 28.78125 -31.828125 28.78125 -28.296875 C 28.78125 -25.929688 28.097656 -23.742188 26.734375 -21.734375 C 25.367188 -19.722656 23.820312 -18.097656 22.09375 -16.859375 C 26.875 -10.515625 29.820312 -6.722656 30.9375 -5.484375 C 33.226562 -3.109375 35.71875 -1.757812 38.40625 -1.4375 L 38.34375 0.421875 C 36.101562 0.378906 34.28125 0.0507812 32.875 -0.5625 C 31.46875 -1.1875 30.070312 -2.238281 28.6875 -3.71875 C 27.300781 -5.207031 24.257812 -9.207031 19.5625 -15.71875 C 16.3125 -15.71875 13.125 -15.816406 10 -16.015625 L 10 0 Z M 18.0625 -18 C 19.625 -18 21.304688 -19.039062 23.109375 -21.125 C 24.921875 -23.21875 25.828125 -25.644531 25.828125 -28.40625 C 25.828125 -31.175781 24.882812 -33.285156 23 -34.734375 C 21.113281 -36.179688 18.664062 -36.90625 15.65625 -36.90625 C 14.050781 -36.90625 12.164062 -36.820312 10 -36.65625 L 10 -18.296875 C 12.882812 -18.097656 15.570312 -18 18.0625 -18 Z M 18.0625 -18 "/></g></g></g><g fill="#000000" fill-opacity="1"><g transform="translate(895.045489, 678.135969)"><g><path d="M 7.21875 0 L 7.21875 -39.078125 L 25.46875 -39.078125 L 25.46875 -36.65625 L 10 -36.65625 L 10 -22.453125 L 23.953125 -22.453125 L 23.953125 -20.109375 L 10 -20.109375 L 10 -2.53125 L 26.0625 -2.53125 L 26.0625 0 Z M 7.21875 0 "/></g></g></g><g fill="#000000" fill-opacity="1"><g transform="translate(924.948557, 678.135969)"><g><path d="M 37.625 -1.921875 C 34.613281 -0.234375 30.425781 0.609375 25.0625 0.609375 C 19.707031 0.609375 14.992188 -1.316406 10.921875 -5.171875 C 6.847656 -9.023438 4.8125 -13.8125 4.8125 -19.53125 C 4.8125 -25.25 6.585938 -30.035156 10.140625 -33.890625 C 13.691406 -37.742188 18.28125 -39.671875 23.90625 -39.671875 C 28.4375 -39.671875 32.867188 -38.96875 37.203125 -37.5625 L 36.484375 -35.28125 C 32.304688 -36.5625 27.988281 -37.203125 23.53125 -37.203125 C 19.082031 -37.203125 15.34375 -35.503906 12.3125 -32.109375 C 9.28125 -28.722656 7.765625 -24.570312 7.765625 -19.65625 C 7.765625 -14.738281 9.519531 -10.550781 13.03125 -7.09375 C 16.539062 -3.644531 20.601562 -1.921875 25.21875 -1.921875 C 29.84375 -1.921875 33.675781 -2.566406 36.71875 -3.859375 Z M 37.625 -1.921875 "/></g></g></g><g fill="#000000" fill-opacity="1"><g transform="translate(965.200413, 678.135969)"><g><path d="M 37.140625 0 L 37.140625 -19.75 L 10 -19.75 L 10 0 L 7.21875 0 L 7.21875 -39.078125 L 10 -39.078125 L 10 -22.21875 L 37.140625 -22.21875 L 37.140625 -39.078125 L 39.921875 -39.078125 L 39.921875 0 Z M 37.140625 0 "/></g></g></g><g fill="#000000" fill-opacity="1"><g transform="translate(1012.311365, 678.135969)"><g><path d="M 14.203125 -36.609375 L 0.96875 -36.609375 L 0.96875 -39.078125 L 30.15625 -39.078125 L 30.15625 -36.609375 L 16.921875 -36.609375 L 16.921875 0 L 14.203125 0 Z M 14.203125 -36.609375 "/></g></g></g></svg>